<?xml version="1.0" encoding="utf-8"?>
<!-- Generator: Adobe Illustrator 27.6.1, SVG Export Plug-In . SVG Version: 6.00 Build 0)  -->
<svg version="1.1" xmlns="http://www.w3.org/2000/svg" xmlns:xlink="http://www.w3.org/1999/xlink" x="0px" y="0px"
	 viewBox="0 0 500 500" style="enable-background:new 0 0 500 500;" xml:space="preserve">
<style type="text/css">
	.st0{fill:#D9E4F5;}
	.st1{fill:#C7D9ED;}
	.st2{fill:#B4CAE3;}
	.st3{fill:#007EFF;}
	.st4{fill:#0060E6;}
	.st5{fill:#3B3E7D;}
	.st6{fill:#18285D;}
	.st7{fill:#FFFFFF;}
	.st8{fill:#00A0FF;}
	.st9{fill:#FB9A83;}
	.st10{fill:#FCFBFF;}
	.st11{fill:#021147;}
	.st12{fill:#FF6D6B;}
	.st13{fill:#ED495C;}
	.st14{fill:#586199;}
	.st15{fill:#F9F9F9;}
</style>
<g id="BACKGROUND">
</g>
<g id="OBJECTS">
	<g>
		<path class="st0" d="M476.17,395.51c0,14.51-98.25,26.27-219.46,26.27S37.25,410.01,37.25,395.51
			c0-14.51,98.25-26.27,219.46-26.27S476.17,381,476.17,395.51z"/>
	</g>
	<g>
		<path class="st0" d="M140.77,86.05c0,1.04-0.42,1.98-1.11,2.67c-0.68,0.69-1.63,1.11-2.66,1.11H56.21c-2.07,0-3.77-1.7-3.77-3.78
			c0-1.04,0.42-1.98,1.11-2.67c0.68-0.69,1.63-1.11,2.66-1.11h3.82c1.51-3.5,4.99-5.95,9.04-5.95c2.73,0,5.2,1.11,6.98,2.9
			c2.38-4.04,6.77-6.75,11.79-6.75c1.38,0,2.71,0.21,3.97,0.59c2.63-4.94,7.82-8.31,13.81-8.31c7.19,0,13.24,4.86,15.07,11.46
			c1.32-0.66,2.82-1.04,4.41-1.04c4.49,0,8.27,2.99,9.46,7.1h2.43C139.07,82.27,140.77,83.97,140.77,86.05z"/>
		<path class="st0" d="M419.63,92.84c0,1.04-0.42,1.98-1.11,2.67c-0.68,0.69-1.63,1.11-2.66,1.11h-80.78c-2.07,0-3.77-1.7-3.77-3.78
			c0-1.04,0.42-1.98,1.11-2.67c0.68-0.69,1.63-1.11,2.66-1.11h3.82c1.51-3.5,4.99-5.95,9.04-5.95c2.73,0,5.2,1.11,6.98,2.9
			c2.38-4.04,6.77-6.75,11.79-6.75c1.38,0,2.71,0.21,3.97,0.59c2.63-4.94,7.82-8.31,13.81-8.31c7.19,0,13.24,4.86,15.07,11.46
			c1.33-0.66,2.82-1.04,4.41-1.04c4.48,0,8.27,2.99,9.46,7.1h2.43C417.93,89.06,419.63,90.76,419.63,92.84z"/>
		<path class="st0" d="M280.25,108.41c0,1.04-0.42,1.98-1.11,2.67c-0.68,0.69-1.63,1.11-2.66,1.11h-80.78
			c-2.07,0-3.77-1.7-3.77-3.78c0-1.04,0.42-1.98,1.11-2.67c0.68-0.69,1.63-1.11,2.66-1.11h3.82c1.51-3.5,4.99-5.95,9.04-5.95
			c2.73,0,5.2,1.11,6.98,2.9c2.38-4.04,6.77-6.75,11.79-6.75c1.38,0,2.71,0.21,3.97,0.59c2.63-4.94,7.82-8.31,13.81-8.31
			c7.19,0,13.24,4.86,15.07,11.46c1.32-0.66,2.82-1.04,4.41-1.04c4.48,0,8.27,2.99,9.46,7.1h2.43
			C278.55,104.63,280.25,106.33,280.25,108.41z"/>
	</g>
	<g>
		<g>
			<g>
				<g>
					<path class="st1" d="M453.81,283.63c-8.53,13.5,3.97,11.66-2.24,21.8c-5.66,9.24-18.2,4.32-13.3,22.67
						c1.07,4.01-1.2,7.68-4.99,10.16c-6.23,4.07-13.42,3.23-18.57-0.5c-0.42-0.3-0.82-0.62-1.21-0.96
						c-4.07-3.54-6.5-9.04-5.48-15.27c0.83-5.05,3.11-10.35,8.58-13.49c12.81-7.36,1.05-23.88,12.52-27.31
						c13.82-4.13,13.17-9.4,21.56-18.59C459.58,252.39,465.38,265.33,453.81,283.63z"/>
					<g>
						<path class="st2" d="M447.52,278.72c-0.24,0.39-19.84,32.49-32.8,59.02c-0.42-0.3-0.82-0.62-1.21-0.96
							c13-26.56,32.48-58.47,32.72-58.85c0.22-0.36,0.68-0.47,1.04-0.25C447.62,277.9,447.74,278.37,447.52,278.72z"/>
					</g>
				</g>
				<g>
					<path class="st0" d="M464.93,319.75c-14.97,14.05,1.18,15.79-9.81,26.41c-10.02,9.68-24.04-0.49-23.85,23.94
						c0.04,5.34-3.97,9.18-9.48,11.04c-9.07,3.05-17.74-0.31-22.95-6.61c-0.42-0.51-0.82-1.04-1.2-1.59
						c-3.92-5.72-5.18-13.35-1.91-20.77c2.66-6.02,7.21-11.88,15.02-14.03c18.32-5.04,9-29.39,24.38-29.96
						c18.54-0.69,19.41-7.46,32.83-16.19C482.18,282.73,485.22,300.71,464.93,319.75z"/>
					<g>
						<path class="st1" d="M458.67,311.62c-0.42,0.41-35.16,34.05-59.83,62.91c-0.42-0.51-0.82-1.04-1.2-1.59
							c24.74-28.88,59.26-62.31,59.68-62.72c0.39-0.37,1-0.36,1.37,0.02C459.07,310.64,459.06,311.25,458.67,311.62z"/>
					</g>
				</g>
			</g>
			<g>
				<g>
					<path class="st1" d="M56.42,170.64c9.29,12.99-3.29,11.87,3.48,21.64c6.18,8.9,18.41,3.27,14.57,21.87
						c-0.84,4.07,1.63,7.6,5.56,9.86c6.46,3.7,13.58,2.45,18.51-1.56c0.4-0.32,0.79-0.67,1.16-1.03c3.86-3.77,5.98-9.4,4.6-15.56
						c-1.11-4.99-3.7-10.16-9.33-12.98c-13.21-6.62-2.42-23.78-14.05-26.55c-14.04-3.34-13.68-8.63-22.59-17.33
						C48.88,139.78,43.83,153.03,56.42,170.64z"/>
					<g>
						<path class="st2" d="M62.43,165.38c0.26,0.37,21.66,31.3,36.11,57.06c0.4-0.32,0.79-0.67,1.16-1.03
							c-14.5-25.78-35.77-56.52-36.03-56.89c-0.24-0.34-0.71-0.43-1.05-0.19C62.27,164.57,62.19,165.04,62.43,165.38z"/>
					</g>
				</g>
				<g>
					<path class="st0" d="M48.42,212.15c16.14,12.69,0.2,15.83,12.08,25.46c10.83,8.77,23.91-2.58,25.85,21.77
						c0.42,5.33,4.75,8.8,10.4,10.17c9.3,2.25,17.65-1.85,22.29-8.58c0.38-0.54,0.73-1.11,1.06-1.69c3.41-6.04,4-13.75,0.09-20.86
						c-3.17-5.77-8.22-11.21-16.18-12.67c-18.69-3.42-11.53-28.49-26.89-27.73c-18.53,0.93-19.99-5.74-34.11-13.27
						C28.01,176.77,26.55,194.95,48.42,212.15z"/>
					<g>
						<path class="st1" d="M53.94,203.5c0.45,0.37,37.99,30.85,65.09,57.46c0.38-0.54,0.73-1.11,1.06-1.69
							c-27.16-26.61-64.47-56.91-64.92-57.28c-0.42-0.34-1.03-0.27-1.37,0.14C53.46,202.55,53.53,203.17,53.94,203.5z"/>
					</g>
				</g>
			</g>
			<g>
				<g>
					<path class="st1" d="M379.22,126.62c-9.29,12.99,3.29,11.87-3.48,21.64c-6.18,8.9-18.41,3.27-14.57,21.87
						c0.84,4.07-1.64,7.6-5.56,9.86c-6.46,3.7-13.58,2.45-18.51-1.56c-0.4-0.32-0.79-0.67-1.16-1.03c-3.86-3.77-5.98-9.4-4.6-15.56
						c1.11-4.99,3.7-10.16,9.33-12.98c13.21-6.62,2.42-23.78,14.05-26.55c14.04-3.34,13.68-8.63,22.59-17.33
						C386.77,95.77,391.81,109.02,379.22,126.62z"/>
					<g>
						<path class="st2" d="M373.22,121.37c-0.26,0.37-21.66,31.3-36.11,57.06c-0.4-0.32-0.79-0.67-1.16-1.03
							c14.5-25.78,35.77-56.52,36.03-56.89c0.24-0.34,0.71-0.43,1.05-0.19C373.37,120.55,373.45,121.03,373.22,121.37z"/>
					</g>
				</g>
				<g>
					<path class="st0" d="M409.16,144.3c-16.14,12.69-0.2,15.83-12.08,25.46c-10.83,8.77-23.91-2.58-25.85,21.77
						c-0.42,5.33-4.75,8.8-10.4,10.17c-9.3,2.25-17.65-1.85-22.29-8.58c-0.38-0.54-0.73-1.11-1.06-1.69
						c-3.41-6.04-4-13.75-0.09-20.86c3.17-5.77,8.22-11.21,16.18-12.67c18.69-3.42,11.53-28.49,26.89-27.73
						c18.53,0.93,19.99-5.74,34.11-13.27C429.57,108.92,431.04,127.1,409.16,144.3z"/>
					<g>
						<path class="st1" d="M403.64,135.65c-0.45,0.37-37.99,30.85-65.09,57.46c-0.38-0.54-0.73-1.11-1.06-1.69
							c27.16-26.61,64.47-56.91,64.92-57.28c0.42-0.34,1.03-0.27,1.37,0.14C404.12,134.71,404.06,135.32,403.64,135.65z"/>
					</g>
				</g>
			</g>
			<path class="st0" d="M174.81,158.74c-6.31-4.32-22.13,6.34-30.39,19.29l7.34-20.55c2.65-2.3,7.3-5.53,14.57-8.11
				c11.3-4,22.62-10.27,16.29-14.61c-5.93-4.06-20.23,5.09-28.8,16.94l9.42-26.39c1.75-1.35,4.42-2.99,8.23-4.34
				c7.12-2.52,14.25-6.48,10.27-9.21c-3.46-2.37-11.44,2.4-16.89,9.05l3.05-8.55c1.4-2.48,3.38-6.04,6.51-9.27
				c7.25-7.5,12.74-15.94,7.14-17.17c-5.6-1.22-14.76,13.48-16.2,26.76l-1.57,4.4c1.22-9.66-2.25-21.36-7.1-21.77
				c-4.81-0.41-1.79,7.17,2.12,13.63c2.98,4.92,3.8,8.82,4.02,10.84l-7.42,20.79c1.89-15.31-3.61-33.76-11.28-34.42
				c-7.64-0.65-2.85,11.37,3.36,21.62c4.69,7.75,6.01,13.91,6.37,17.13l-8.9,24.93c1.58-15.13-3.83-33.48-11.38-33.54
				c-5.82-0.05-4.04,8.17,2.91,19.76c4.72,7.88,6.23,14.96,6.72,18.68L139,186.39c0.7,0.5,1.43,0.76,2.16,0.77l1.67-4.67
				c2.36-2.28,7.26-6.15,15.69-9.14C169.82,169.34,181.14,163.07,174.81,158.74z"/>
			<path class="st0" d="M94.82,376.14h3.5l-0.12-0.11c-1.27-3.02-3.1-9-2.83-17.94c0.36-11.98-1.38-24.8-7.71-20.48
				c-6.32,4.32-2.11,22.92,6.96,35.32l-16.49-14.28c-1.18-3.31-2.51-8.81-2.28-16.51c0.36-11.98-1.38-24.8-7.71-20.48
				c-5.93,4.05-2.58,20.7,5.36,32.98L52.31,336.3c-0.62-2.12-1.18-5.2-1.06-9.24c0.23-7.55-0.87-15.63-4.86-12.9
				c-3.46,2.37-1.91,11.54,2.31,19.03l-6.87-5.95c-1.81-2.2-4.4-5.34-6.28-9.43c-4.37-9.48-10.24-17.65-13.41-12.88
				c-3.17,4.77,7.21,18.64,19.07,24.8l3.53,3.06c-8.56-4.64-20.72-5.64-22.87-1.28c-2.13,4.34,6.03,4.27,13.47,2.96
				c5.66-0.99,9.6-0.35,11.56,0.18l16.69,14.45c-13.58-7.31-32.78-8.87-36.17-1.96c-3.38,6.88,9.56,6.77,21.37,4.7
				c8.92-1.56,15.14-0.56,18.28,0.27l20.01,17.33c-13.53-6.95-32.6-8.56-35.39-1.55c-2.15,5.41,6.15,6.72,19.48,4.45
				c9.06-1.55,16.2-0.39,19.85,0.51L94.82,376.14z"/>
		</g>
	</g>
	<g>
		<g>
			<g>
				<g>
					<g>
						<path class="st3" d="M443.45,135.09c-2.64,0-4.78-2.15-4.78-4.78c0-2.64,2.15-4.78,4.78-4.78c2.64,0,4.78,2.14,4.78,4.78
							C448.23,132.94,446.09,135.09,443.45,135.09z M443.45,133.59c1.81,0,3.28-1.47,3.28-3.28c0-1.81-1.47-3.28-3.28-3.28
							c-1.81,0-3.28,1.47-3.28,3.28C440.17,132.12,441.64,133.59,443.45,133.59z"/>
					</g>
					<g>
						<g>
							<path class="st4" d="M448.32,159.39c-2.64,0-4.78-2.15-4.78-4.78c0-2.64,2.14-4.78,4.78-4.78c2.64,0,4.78,2.15,4.78,4.78
								C453.1,157.24,450.95,159.39,448.32,159.39z M448.32,157.89c1.81,0,3.28-1.47,3.28-3.28c0-1.81-1.47-3.28-3.28-3.28
								c-1.81,0-3.28,1.47-3.28,3.28C445.03,156.42,446.51,157.89,448.32,157.89z"/>
						</g>
					</g>
					<g>
						<g>
							<g>
								<path class="st3" d="M462.86,166.12c0-0.41-0.34-0.75-0.75-0.75h-3.31c-0.41,0-0.75,0.34-0.75,0.75
									c0,0.41,0.34,0.75,0.75,0.75h3.31C462.52,166.87,462.86,166.54,462.86,166.12z"/>
							</g>
							<g>
								<path class="st3" d="M468.65,166.12c0-0.41-0.34-0.75-0.75-0.75h-3.31c-0.41,0-0.75,0.34-0.75,0.75
									c0,0.41,0.34,0.75,0.75,0.75h3.31C468.31,166.87,468.65,166.54,468.65,166.12z"/>
							</g>
						</g>
						<g>
							<g>
								<path class="st3" d="M464.1,170.76v-2.97c0-0.41-0.34-0.75-0.75-0.75c-0.41,0-0.75,0.34-0.75,0.75v2.97
									c0,0.41,0.34,0.75,0.75,0.75C463.76,171.51,464.1,171.18,464.1,170.76z"/>
							</g>
							<g>
								<path class="st3" d="M464.1,164.45v-2.97c0-0.41-0.34-0.75-0.75-0.75c-0.41,0-0.75,0.34-0.75,0.75v2.97
									c0,0.41,0.34,0.75,0.75,0.75C463.76,165.2,464.1,164.86,464.1,164.45z"/>
							</g>
						</g>
					</g>
					<g>
						<g>
							<g>
								<g>
									<path class="st4" d="M457.47,140.58c0-0.41-0.34-0.75-0.75-0.75h-3.31c-0.41,0-0.75,0.34-0.75,0.75s0.34,0.75,0.75,0.75
										h3.31C457.13,141.33,457.47,141,457.47,140.58z"/>
								</g>
								<g>
									<path class="st4" d="M463.25,140.58c0-0.41-0.34-0.75-0.75-0.75h-3.31c-0.41,0-0.75,0.34-0.75,0.75s0.34,0.75,0.75,0.75
										h3.31C462.92,141.33,463.25,141,463.25,140.58z"/>
								</g>
							</g>
							<g>
								<g>
									<path class="st4" d="M458.71,145.23v-2.97c0-0.41-0.34-0.75-0.75-0.75c-0.41,0-0.75,0.34-0.75,0.75v2.97
										c0,0.41,0.34,0.75,0.75,0.75C458.37,145.98,458.71,145.64,458.71,145.23z"/>
								</g>
								<g>
									<path class="st4" d="M458.71,138.91v-2.97c0-0.41-0.34-0.75-0.75-0.75c-0.41,0-0.75,0.34-0.75,0.75v2.97
										c0,0.41,0.34,0.75,0.75,0.75C458.37,139.66,458.71,139.33,458.71,138.91z"/>
								</g>
							</g>
						</g>
					</g>
				</g>
			</g>
		</g>
		<g>
			<g>
				<g>
					<g>
						<path class="st3" d="M47.14,291.08c0,2.64-2.14,4.78-4.78,4.78c-2.64,0-4.78-2.15-4.78-4.78c0-2.64,2.15-4.78,4.78-4.78
							C44.99,286.3,47.14,288.44,47.14,291.08z M39.07,291.08c0,1.81,1.47,3.28,3.28,3.28c1.81,0,3.28-1.47,3.28-3.28
							c0-1.81-1.47-3.28-3.28-3.28C40.54,287.8,39.07,289.27,39.07,291.08z"/>
					</g>
					<g>
						<g>
							<path class="st4" d="M52,266.78c0,2.64-2.14,4.78-4.78,4.78c-2.64,0-4.78-2.15-4.78-4.78c0-2.64,2.14-4.78,4.78-4.78
								C49.85,261.99,52,264.14,52,266.78z M43.94,266.78c0,1.81,1.47,3.28,3.28,3.28c1.81,0,3.28-1.47,3.28-3.28
								c0-1.81-1.47-3.28-3.28-3.28C45.41,263.49,43.94,264.97,43.94,266.78z"/>
						</g>
					</g>
					<g>
						<g>
							<g>
								<path class="st3" d="M61.76,255.26c0,0.41-0.34,0.75-0.75,0.75H57.7c-0.41,0-0.75-0.34-0.75-0.75
									c0-0.41,0.34-0.75,0.75-0.75h3.31C61.43,254.51,61.76,254.85,61.76,255.26z"/>
							</g>
							<g>
								<path class="st3" d="M67.55,255.26c0,0.41-0.34,0.75-0.75,0.75h-3.31c-0.41,0-0.75-0.34-0.75-0.75
									c0-0.41,0.34-0.75,0.75-0.75h3.31C67.21,254.51,67.55,254.85,67.55,255.26z"/>
							</g>
						</g>
						<g>
							<g>
								<path class="st3" d="M63,250.62v2.97c0,0.41-0.34,0.75-0.75,0.75c-0.41,0-0.75-0.34-0.75-0.75v-2.97
									c0-0.41,0.34-0.75,0.75-0.75C62.67,249.87,63,250.2,63,250.62z"/>
							</g>
							<g>
								<path class="st3" d="M63,256.93v2.97c0,0.41-0.34,0.75-0.75,0.75c-0.41,0-0.75-0.34-0.75-0.75v-2.97
									c0-0.41,0.34-0.75,0.75-0.75C62.67,256.18,63,256.52,63,256.93z"/>
							</g>
						</g>
					</g>
					<g>
						<g>
							<g>
								<g>
									<path class="st4" d="M56.37,280.8c0,0.41-0.34,0.75-0.75,0.75h-3.31c-0.41,0-0.75-0.34-0.75-0.75
										c0-0.41,0.34-0.75,0.75-0.75h3.31C56.03,280.05,56.37,280.38,56.37,280.8z"/>
								</g>
								<g>
									<path class="st4" d="M62.16,280.8c0,0.41-0.34,0.75-0.75,0.75H58.1c-0.41,0-0.75-0.34-0.75-0.75
										c0-0.41,0.34-0.75,0.75-0.75h3.31C61.82,280.05,62.16,280.38,62.16,280.8z"/>
								</g>
							</g>
							<g>
								<g>
									<path class="st4" d="M57.61,276.16v2.97c0,0.41-0.34,0.75-0.75,0.75s-0.75-0.34-0.75-0.75v-2.97
										c0-0.41,0.34-0.75,0.75-0.75S57.61,275.74,57.61,276.16z"/>
								</g>
								<g>
									<path class="st4" d="M57.61,282.47v2.97c0,0.41-0.34,0.75-0.75,0.75s-0.75-0.34-0.75-0.75v-2.97
										c0-0.41,0.34-0.75,0.75-0.75S57.61,282.06,57.61,282.47z"/>
								</g>
							</g>
						</g>
					</g>
				</g>
			</g>
		</g>
		<g>
			<g>
				<g>
					<g>
						<g>
							<path class="st3" d="M280.68,121.77l-0.16,5.7l5.34,0.15c0.23,1.36,0.69,2.68,1.36,3.92l-3.78,3.57l3.91,4.15l3.62-3.42
								c1.42,1.03,3,1.74,4.65,2.12l-0.15,5.34l5.7,0.16l0.16-5.5c1.12-0.25,2.21-0.66,3.25-1.21l3.57,3.78l4.15-3.91l-3.42-3.62
								c1.03-1.42,1.74-3,2.12-4.65l4.67,0.13l0.16-5.7l-4.83-0.14c-0.32-1.43-0.88-2.82-1.7-4.09l3.62-3.42l-3.91-4.15l-3.78,3.57
								c-1.4-0.86-2.93-1.43-4.51-1.7l0.16-5.37l-5.7-0.16l-0.17,5.82c-1.19,0.34-2.34,0.85-3.41,1.54l-3.42-3.62l-4.15,3.91
								l3.57,3.78c-0.62,1-1.08,2.07-1.4,3.17L280.68,121.77z M294.91,121.67c2.1-1.98,5.41-1.88,7.39,0.21
								c1.98,2.1,1.88,5.41-0.21,7.39c-2.1,1.98-5.41,1.88-7.39-0.21C292.72,126.96,292.81,123.65,294.91,121.67z"/>
						</g>
						<g>
							<path class="st4" d="M299.38,133.71c4.61-0.5,7.94-4.63,7.45-9.24c-0.5-4.61-4.63-7.94-9.24-7.45
								c-4.61,0.5-7.94,4.63-7.45,9.24C290.63,130.87,294.77,134.2,299.38,133.71z M294.91,121.67c2.1-1.98,5.41-1.88,7.39,0.21
								c1.98,2.1,1.88,5.41-0.21,7.39c-2.1,1.98-5.41,1.88-7.39-0.21C292.72,126.96,292.81,123.65,294.91,121.67z"/>
						</g>
					</g>
					<g>
						<g>
							<path class="st3" d="M318.17,124.2l-0.09,3.31l3.1,0.09c0.13,0.79,0.4,1.56,0.79,2.28l-2.2,2.07l2.27,2.41l2.1-1.99
								c0.82,0.6,1.74,1.01,2.7,1.23l-0.09,3.1l3.31,0.09l0.09-3.2c0.65-0.15,1.28-0.38,1.89-0.7l2.07,2.2l2.41-2.27l-1.99-2.1
								c0.6-0.82,1.01-1.74,1.23-2.7l2.71,0.08l0.1-3.31l-2.81-0.08c-0.19-0.83-0.51-1.64-0.99-2.38l2.1-1.99l-2.27-2.41l-2.2,2.07
								c-0.81-0.5-1.7-0.83-2.62-0.99l0.09-3.12l-3.31-0.09l-0.1,3.38c-0.69,0.2-1.36,0.49-1.98,0.89l-1.99-2.1l-2.41,2.27l2.07,2.2
								c-0.36,0.58-0.63,1.2-0.81,1.84L318.17,124.2z M326.44,124.14c1.22-1.15,3.14-1.09,4.29,0.12c1.15,1.22,1.09,3.14-0.12,4.29
								c-1.22,1.15-3.14,1.09-4.29-0.12C325.16,127.22,325.22,125.29,326.44,124.14z"/>
						</g>
						<g>
							<path class="st4" d="M329.03,131.13c2.68-0.29,4.61-2.69,4.33-5.37c-0.29-2.68-2.69-4.61-5.37-4.33
								c-2.68,0.29-4.61,2.69-4.33,5.37C323.95,129.48,326.36,131.42,329.03,131.13z M326.44,124.14c1.22-1.15,3.14-1.09,4.29,0.12
								c1.15,1.22,1.09,3.14-0.12,4.29c-1.22,1.15-3.14,1.09-4.29-0.12C325.16,127.22,325.22,125.29,326.44,124.14z"/>
						</g>
					</g>
				</g>
			</g>
		</g>
	</g>
	<path class="st4" d="M53.71,250.75l-0.01,0.01h0.02L53.71,250.75z"/>
	<polygon class="st4" points="53.7,250.77 53.64,250.86 53.66,250.77 	"/>
	<g>
		<g>
			<path class="st5" d="M421.92,154.53v246.34c0,2.28-1.85,4.13-4.14,4.13H80.72c-1.06,0-2.03-0.4-2.76-1.06
				c-0.84-0.76-1.37-1.85-1.37-3.08V154.53c0-2.28,1.85-4.14,4.13-4.14h337.06c1.36,0,2.57,0.66,3.33,1.68
				C421.62,152.76,421.92,153.61,421.92,154.53z"/>
		</g>
		<path class="st6" d="M421.92,154.53v246.34c0,2.28-1.85,4.13-4.14,4.13H80.72c-1.06,0-2.03-0.4-2.76-1.06l343.15-251.87
			C421.62,152.76,421.92,153.61,421.92,154.53z"/>
		<path class="st7" d="M412.1,164.77v225.86c0,2.51-2.04,4.55-4.56,4.55H90.96c-2.52,0-4.55-2.04-4.55-4.55V164.77
			c0-2.52,2.04-4.56,4.55-4.56h316.59C410.06,160.22,412.1,162.26,412.1,164.77z"/>
		<g>
			<path class="st0" d="M412.1,164.77v15.85H86.41v-15.85c0-2.52,2.04-4.56,4.55-4.56h316.59
				C410.06,160.22,412.1,162.26,412.1,164.77z"/>
			<path class="st7" d="M141.61,170.95L141.61,170.95c0,1.5,1.21,2.71,2.71,2.71h237.4c1.5,0,2.71-1.21,2.71-2.71l0,0
				c0-1.5-1.21-2.71-2.71-2.71h-237.4C142.83,168.24,141.61,169.46,141.61,170.95z"/>
			<g>
				<path class="st5" d="M104.51,170.95v2.01c0,0.58-0.62,0.94-1.12,0.65l-1.74-1l-1.74-1c-0.5-0.29-0.5-1.01,0-1.29l1.74-1l1.74-1
					c0.5-0.29,1.12,0.07,1.12,0.65V170.95z"/>
			</g>
			<g>
				<path class="st5" d="M113.56,170.95v2.01c0,0.58,0.62,0.94,1.12,0.65l1.74-1l1.74-1c0.5-0.29,0.5-1.01,0-1.29l-1.74-1l-1.74-1
					c-0.5-0.29-1.12,0.07-1.12,0.65V170.95z"/>
			</g>
		</g>
	</g>
	<g>
		<g>
			<g>
				<path class="st0" d="M395.18,198.19v131.46c0,4.68-3.79,8.47-8.47,8.47H119.78c-4.68,0-8.47-3.79-8.47-8.47V198.19
					c0-4.68,3.79-8.47,8.47-8.47h266.93C391.39,189.72,395.18,193.51,395.18,198.19z"/>
				<path class="st2" d="M395.18,198.19v6.17H111.32v-6.17c0-4.68,3.79-8.47,8.47-8.47h266.93
					C391.39,189.72,395.18,193.51,395.18,198.19z"/>
				<g>
					<g>
						<path class="st5" d="M367.92,196.9c0,1.59-1.29,2.87-2.87,2.87s-2.87-1.29-2.87-2.87c0-1.59,1.29-2.87,2.87-2.87
							S367.92,195.31,367.92,196.9z"/>
					</g>
					<path class="st4" d="M377.1,196.9c0,1.59-1.29,2.87-2.87,2.87c-1.59,0-2.87-1.29-2.87-2.87c0-1.59,1.29-2.87,2.87-2.87
						C375.82,194.03,377.1,195.31,377.1,196.9z"/>
					<path class="st3" d="M386.29,196.9c0,1.59-1.29,2.87-2.87,2.87c-1.59,0-2.87-1.29-2.87-2.87c0-1.59,1.29-2.87,2.87-2.87
						C385,194.03,386.29,195.31,386.29,196.9z"/>
				</g>
			</g>
			<g>
				<rect x="119.01" y="212.72" class="st3" width="69.6" height="49.81"/>
				<polygon class="st6" points="188.61,249.35 185.23,243.66 174.02,224.78 151.6,262.54 188.61,262.54 				"/>
				<g>
					<polygon class="st5" points="146.96,262.54 119.01,262.54 132.99,240.02 146.96,217.5 160.93,240.02 174.91,262.54 					"/>
				</g>
				<polygon class="st7" points="137.9,232.1 146.96,238.88 156.02,232.1 146.96,217.5 				"/>
				<polygon class="st7" points="166.39,237.63 174.02,243.66 181.65,237.63 174.02,224.78 				"/>
			</g>
			<g>
				<rect x="311.76" y="276.9" class="st3" width="69.6" height="49.81"/>
				<polygon class="st6" points="381.36,313.53 377.98,307.83 366.77,288.96 344.35,326.71 381.36,326.71 				"/>
				<g>
					<polygon class="st5" points="339.71,326.71 311.76,326.71 325.74,304.19 339.71,281.68 353.69,304.19 367.66,326.71 					"/>
				</g>
				<polygon class="st7" points="330.65,296.28 339.71,303.06 348.77,296.28 339.71,281.68 				"/>
				<polygon class="st7" points="359.14,301.81 366.77,307.83 374.4,301.81 366.77,288.96 				"/>
			</g>
			<g>
				<path class="st2" d="M185.46,274.66h-63.29c-1.74,0-3.16-1.41-3.16-3.16l0,0c0-1.74,1.41-3.16,3.16-3.16h63.29
					c1.74,0,3.16,1.41,3.16,3.16l0,0C188.61,273.24,187.2,274.66,185.46,274.66z"/>
				<path class="st2" d="M185.46,287.75h-63.29c-1.74,0-3.16-1.41-3.16-3.16l0,0c0-1.74,1.41-3.16,3.16-3.16h63.29
					c1.74,0,3.16,1.41,3.16,3.16l0,0C188.61,286.33,187.2,287.75,185.46,287.75z"/>
				<path class="st2" d="M185.46,300.84h-63.29c-1.74,0-3.16-1.41-3.16-3.16l0,0c0-1.74,1.41-3.16,3.16-3.16h63.29
					c1.74,0,3.16,1.41,3.16,3.16l0,0C188.61,299.42,187.2,300.84,185.46,300.84z"/>
				<path class="st2" d="M185.46,313.93h-63.29c-1.74,0-3.16-1.41-3.16-3.16l0,0c0-1.74,1.41-3.16,3.16-3.16h63.29
					c1.74,0,3.16,1.41,3.16,3.16l0,0C188.61,312.52,187.2,313.93,185.46,313.93z"/>
				<path class="st2" d="M185.46,327.02h-63.29c-1.74,0-3.16-1.41-3.16-3.16l0,0c0-1.74,1.41-3.16,3.16-3.16h63.29
					c1.74,0,3.16,1.41,3.16,3.16l0,0C188.61,325.61,187.2,327.02,185.46,327.02z"/>
			</g>
			<g>
				<path class="st2" d="M200.66,215.88L200.66,215.88c0,1.74,1.41,3.16,3.16,3.16h92.27c1.74,0,3.16-1.41,3.16-3.16l0,0
					c0-1.74-1.41-3.16-3.16-3.16h-92.27C202.07,212.72,200.66,214.14,200.66,215.88z"/>
				<path class="st2" d="M200.66,229.38L200.66,229.38c0,1.74,1.41,3.16,3.16,3.16h92.27c1.74,0,3.16-1.41,3.16-3.16v0
					c0-1.74-1.41-3.16-3.16-3.16h-92.27C202.07,226.22,200.66,227.63,200.66,229.38z"/>
				<path class="st2" d="M200.66,242.88L200.66,242.88c0,1.74,1.41,3.16,3.16,3.16h92.27c1.74,0,3.16-1.41,3.16-3.16l0,0
					c0-1.74-1.41-3.16-3.16-3.16h-92.27C202.07,239.72,200.66,241.13,200.66,242.88z"/>
				<path class="st2" d="M200.66,256.37L200.66,256.37c0,1.74,1.41,3.16,3.16,3.16h92.27c1.74,0,3.16-1.41,3.16-3.16l0,0
					c0-1.74-1.41-3.16-3.16-3.16h-92.27C202.07,253.22,200.66,254.63,200.66,256.37z"/>
				<path class="st2" d="M200.66,269.87L200.66,269.87c0,1.74,1.41,3.16,3.16,3.16h92.27c1.74,0,3.16-1.41,3.16-3.16v0
					c0-1.74-1.41-3.16-3.16-3.16h-92.27C202.07,266.71,200.66,268.13,200.66,269.87z"/>
				<path class="st2" d="M200.66,283.37L200.66,283.37c0,1.74,1.41,3.16,3.16,3.16h92.27c1.74,0,3.16-1.41,3.16-3.16l0,0
					c0-1.74-1.41-3.16-3.16-3.16h-92.27C202.07,280.21,200.66,281.63,200.66,283.37z"/>
				<path class="st2" d="M200.66,296.87L200.66,296.87c0,1.74,1.41,3.16,3.16,3.16h92.27c1.74,0,3.16-1.41,3.16-3.16l0,0
					c0-1.74-1.41-3.16-3.16-3.16h-92.27C202.07,293.71,200.66,295.12,200.66,296.87z"/>
				<path class="st2" d="M200.66,310.36L200.66,310.36c0,1.74,1.41,3.16,3.16,3.16h92.27c1.74,0,3.16-1.41,3.16-3.16l0,0
					c0-1.74-1.41-3.16-3.16-3.16h-92.27C202.07,307.21,200.66,308.62,200.66,310.36z"/>
				<path class="st2" d="M200.66,323.86L200.66,323.86c0,1.74,1.41,3.16,3.16,3.16h92.27c1.74,0,3.16-1.41,3.16-3.16l0,0
					c0-1.74-1.41-3.16-3.16-3.16h-92.27C202.07,320.71,200.66,322.12,200.66,323.86z"/>
			</g>
			<g>
				<path class="st2" d="M342.65,215.88L342.65,215.88c0,1.74,1.41,3.16,3.16,3.16h31.45c1.74,0,3.16-1.41,3.16-3.16l0,0
					c0-1.74-1.41-3.16-3.16-3.16h-31.45C344.07,212.72,342.65,214.14,342.65,215.88z"/>
				<path class="st2" d="M342.65,229.38L342.65,229.38c0,1.74,1.41,3.16,3.16,3.16h31.45c1.74,0,3.16-1.41,3.16-3.16l0,0
					c0-1.74-1.41-3.16-3.16-3.16h-31.45C344.07,226.22,342.65,227.63,342.65,229.38z"/>
				<path class="st2" d="M342.65,242.88L342.65,242.88c0,1.74,1.41,3.16,3.16,3.16h31.45c1.74,0,3.16-1.41,3.16-3.16l0,0
					c0-1.74-1.41-3.16-3.16-3.16h-31.45C344.07,239.72,342.65,241.13,342.65,242.88z"/>
				<path class="st2" d="M342.65,256.37L342.65,256.37c0,1.74,1.41,3.16,3.16,3.16h31.45c1.74,0,3.16-1.41,3.16-3.16l0,0
					c0-1.74-1.41-3.16-3.16-3.16h-31.45C344.07,253.22,342.65,254.63,342.65,256.37z"/>
				<path class="st2" d="M342.65,269.87L342.65,269.87c0,1.74,1.41,3.16,3.16,3.16h31.45c1.74,0,3.16-1.41,3.16-3.16l0,0
					c0-1.74-1.41-3.16-3.16-3.16h-31.45C344.07,266.71,342.65,268.13,342.65,269.87z"/>
			</g>
			<circle class="st2" cx="324.55" cy="225.51" r="12.79"/>
			<circle class="st2" cx="324.55" cy="258.82" r="12.79"/>
		</g>
		<g>
			<g>
				<path class="st3" d="M252.02,0v134.11c0,0.68,0.55,1.23,1.23,1.23c0.68,0,1.23-0.55,1.23-1.23V0H252.02z"/>
			</g>
			<g>
				<g>
					<path class="st6" d="M264.64,170.63c-0.09,5.94-4.92,10.92-10.85,11.19c-6.52,0.3-11.92-4.91-11.92-11.37
						c0-0.44,0.04-0.87,0.09-1.3c1.85,1.31,3.71,2.64,5.64,3.84c1.08,2.4,3.66,4,6.54,3.6c2.64-0.36,4.79-2.46,5.23-5.09
						c0.57-3.46-1.74-6.51-4.91-7.14l0,0c-2.15,0-3.89-1.75-3.89-3.9v-1.34h3.89C260.22,159.73,264.73,164.67,264.64,170.63z"/>
				</g>
				<g>
					<path class="st8" d="M253.25,191.52c-0.68,0-1.23-0.55-1.23-1.23v-13.65c0-0.68,0.55-1.23,1.23-1.23
						c0.68,0,1.23,0.55,1.23,1.23v13.65C254.48,190.97,253.93,191.52,253.25,191.52z"/>
				</g>
				<g>
					<path class="st4" d="M260.01,152.83h-13.33v-12.65c0-2.63,2.13-4.76,4.76-4.76h3.82c2.63,0,4.76,2.13,4.76,4.76V152.83z"/>
				</g>
				<g>
					<path class="st3" d="M260.01,152.83c1.52,4.31-1.51,7.22-3.44,7.22h-6.01c-2.85,0-4.86-3.61-3.89-7.22H260.01z"/>
				</g>
			</g>
		</g>
	</g>
	<g>
		<path class="st0" d="M160.59,438.03c0,3.89-33.21,7.04-74.18,7.04c-40.97,0-74.18-3.15-74.18-7.04c0-3.89,33.21-7.04,74.18-7.04
			C127.38,430.99,160.59,434.14,160.59,438.03z"/>
		<g>
			<g>
				<g>
					<path class="st3" d="M24.74,438.03h116.05V299.11L29.98,431.76L24.74,438.03z M123.38,420.62H61.97l61.42-73.52V420.62z"/>
					<g>
						<g>
							<rect x="133.28" y="326.08" class="st5" width="5.92" height="1.37"/>
						</g>
						<g>
							<rect x="133.28" y="333.98" class="st5" width="5.92" height="1.37"/>
						</g>
						<g>
							<rect x="133.28" y="341.88" class="st5" width="5.92" height="1.37"/>
						</g>
						<g>
							<rect x="133.28" y="349.78" class="st5" width="5.92" height="1.37"/>
						</g>
						<g>
							<rect x="133.28" y="357.69" class="st5" width="5.92" height="1.37"/>
						</g>
						<g>
							<rect x="133.28" y="365.59" class="st5" width="5.92" height="1.37"/>
						</g>
						<g>
							<rect x="133.28" y="373.49" class="st5" width="5.92" height="1.37"/>
						</g>
						<g>
							<rect x="133.28" y="381.4" class="st5" width="5.92" height="1.37"/>
						</g>
						<g>
							<rect x="133.28" y="389.3" class="st5" width="5.92" height="1.37"/>
						</g>
						<g>
							<rect x="133.28" y="397.2" class="st5" width="5.92" height="1.37"/>
						</g>
						<g>
							<rect x="133.28" y="405.11" class="st5" width="5.92" height="1.37"/>
						</g>
						<g>
							<rect x="133.28" y="413.01" class="st5" width="5.92" height="1.37"/>
						</g>
						<g>
							<rect x="133.28" y="420.91" class="st5" width="5.92" height="1.37"/>
						</g>
						<g>
							<rect x="133.28" y="428.81" class="st5" width="5.92" height="1.37"/>
						</g>
					</g>
				</g>
				<polygon class="st4" points="24.74,438.03 140.79,438.03 140.79,431.76 29.98,431.76 				"/>
			</g>
		</g>
	</g>
	<g>
		<path class="st0" d="M444.29,437.54c0,2.21-17.4,4-38.86,4s-38.86-1.79-38.86-4c0-2.21,17.4-4,38.86-4
			S444.29,435.33,444.29,437.54z"/>
		<g>
			<g>
				<g>
					<g>
						<polygon class="st9" points="377.55,420.7 377.15,427.89 382.99,428.02 383.7,420.46 						"/>
						<g>
							<path class="st3" d="M379.47,426.88c0,0,3.01-0.68,3.83-0.63c0.82,0.05,6.1,6.42,7.94,6.85c3.34,0.79,3.15,6.04,1.09,6.22
								c-5.95,0.53-15.99-2.36-15.99-2.36s-0.68-6.78-0.19-8.88C376.63,425.99,377.79,427.44,379.47,426.88z"/>
							<g>
								<g>
									<path class="st10" d="M384.15,432.82c-0.11,0.02-0.22,0-0.31-0.07c-0.18-0.13-0.22-0.39-0.09-0.57
										c0.04-0.06,1.11-1.51,2.37-1.98c1.68-0.63,2.82,0.41,2.87,0.46c0.17,0.15,0.17,0.41,0.02,0.58
										c-0.15,0.17-0.41,0.18-0.58,0.02c-0.03-0.03-0.83-0.73-2.03-0.29c-1.03,0.38-1.98,1.68-1.99,1.69
										C384.35,432.75,384.25,432.81,384.15,432.82z"/>
								</g>
								<g>
									<path class="st10" d="M383.07,431.54c-0.11,0.02-0.22,0-0.31-0.07c-0.18-0.13-0.22-0.39-0.09-0.57
										c0.04-0.06,1.11-1.51,2.37-1.98c1.68-0.63,2.82,0.41,2.87,0.46c0.17,0.15,0.17,0.41,0.02,0.58
										c-0.15,0.17-0.41,0.18-0.58,0.02c-0.03-0.03-0.83-0.73-2.03-0.29c-1.03,0.38-1.98,1.68-1.99,1.69
										C383.26,431.47,383.17,431.52,383.07,431.54z"/>
								</g>
								<g>
									<path class="st10" d="M385.7,433.94c-0.11,0.02-0.22,0-0.31-0.07c-0.18-0.13-0.22-0.39-0.09-0.57
										c0.04-0.06,1.11-1.51,2.37-1.98c1.68-0.63,2.82,0.41,2.87,0.46c0.17,0.15,0.17,0.41,0.02,0.58
										c-0.15,0.17-0.41,0.17-0.58,0.02c-0.03-0.03-0.83-0.73-2.03-0.29c-1.04,0.38-1.98,1.68-1.99,1.69
										C385.89,433.87,385.8,433.92,385.7,433.94z"/>
								</g>
							</g>
						</g>
					</g>
					<g>
						<g>
							<path class="st5" d="M399.02,333.02c0,0-0.12,1.69-0.34,4.49c-0.06,0.74-0.12,1.56-0.19,2.45
								c-0.76,9.4-2.22,26.41-3.81,38.47c-2.24,16.91-9.29,44.71-9.29,44.71l-7.28-0.25l-0.72-0.03l-1.73-0.06
								c0,0,1.21-17.58,2.76-32.85c1.02-10.07,1.63-33.89,1.92-48.93c0.15-7.76,0.22-13.18,0.22-13.18L399.02,333.02z"/>
						</g>
					</g>
					<path class="st6" d="M399.02,333.02c0,0-0.12,1.69-0.34,4.49c-0.06,0.74-0.12,1.56-0.19,2.45c-3.36,0.63-12.59,1.06-18.15,1.06
						c0.15-7.76,0.22-13.18,0.22-13.18L399.02,333.02z"/>
					<g>
						<path class="st6" d="M384.47,337.39c-0.01,0.58-0.68,55.39-6.37,85.5l-0.72-0.03c5.7-30.03,6.37-84.91,6.38-85.48
							L384.47,337.39z"/>
					</g>
				</g>
				<g>
					<g>
						<polygon class="st9" points="423.21,422.08 422.97,428.57 417.04,428.26 416.9,421.36 						"/>
						<g>
							<g>
								<g>
									<path class="st3" d="M421.46,428.27c0,0,1.29-1.68,2.3-1.6c1.01,0.09,8.68,6.38,11.34,6.93c2.65,0.55,2.11,2.5,1.61,3.49
										c-0.5,0.99-21.22-0.69-21.22-0.69s-0.48-6.18,0.23-8.06C416.41,426.47,419.37,428.69,421.46,428.27z"/>
									<g>
										<g>
											<path class="st10" d="M425.69,432.65c-0.09,0.03-0.2,0.02-0.29-0.04c-0.18-0.1-0.24-0.33-0.13-0.51
												c0.04-0.06,0.87-1.46,1.97-1.99c1.47-0.71,2.59,0.13,2.64,0.16c0.16,0.12,0.19,0.36,0.07,0.52
												c-0.12,0.16-0.36,0.19-0.52,0.07c-0.03-0.02-0.81-0.59-1.86-0.08c-0.9,0.44-1.65,1.69-1.65,1.7
												C425.85,432.56,425.77,432.62,425.69,432.65z"/>
										</g>
										<g>
											<path class="st10" d="M424.59,431.58c-0.09,0.03-0.2,0.02-0.29-0.04c-0.18-0.1-0.24-0.33-0.13-0.51
												c0.04-0.06,0.87-1.46,1.97-1.99c1.47-0.71,2.59,0.13,2.64,0.16c0.16,0.12,0.19,0.36,0.07,0.52
												c-0.12,0.16-0.36,0.19-0.52,0.07c-0.03-0.02-0.81-0.59-1.86-0.08c-0.9,0.44-1.65,1.69-1.65,1.7
												C424.76,431.5,424.68,431.55,424.59,431.58z"/>
										</g>
										<g>
											<path class="st10" d="M427.18,433.52c-0.09,0.03-0.2,0.02-0.29-0.04c-0.18-0.1-0.24-0.33-0.13-0.51
												c0.03-0.06,0.87-1.46,1.97-1.99c1.47-0.71,2.59,0.13,2.64,0.16c0.16,0.13,0.19,0.36,0.07,0.52
												c-0.12,0.16-0.36,0.19-0.52,0.07c-0.03-0.02-0.81-0.59-1.86-0.08c-0.9,0.44-1.65,1.69-1.65,1.7
												C427.35,433.44,427.27,433.49,427.18,433.52z"/>
										</g>
									</g>
								</g>
							</g>
						</g>
					</g>
					<g>
						<path class="st5" d="M424.29,423.77l-6.03-0.45l-0.72-0.05l-1.47-0.11c0,0-3.71-35.26-4.86-44.66c-1-8.16-5.68-26.5-8.72-37.9
							c-0.86-3.24-1.59-5.92-2.07-7.65c-0.37-1.36-0.58-2.14-0.58-2.14l20.16-1.95c0,0,0.06,0.44,0.15,1.24
							c0.2,1.63,0.57,4.76,1.03,8.69c1.26,10.69,3.17,27.34,3.92,35.81C427.01,396.41,424.29,423.77,424.29,423.77z"/>
					</g>
					<path class="st6" d="M421.19,338.79l-18.69,1.81c-0.86-3.24-1.59-5.92-2.07-7.65l19.73-2.85
						C420.35,331.74,420.73,334.86,421.19,338.79z"/>
					<g>
						<path class="st6" d="M418.26,423.32l-0.72-0.05c-0.35-10.9-1.42-38.14-3.61-49.68c-2.75-14.55-9.06-35.74-9.12-35.96l0.69-0.2
							c0.06,0.21,6.39,21.44,9.14,36.03C416.83,385.08,417.91,412.44,418.26,423.32z"/>
					</g>
				</g>
				<g>
					<g>
						<path class="st8" d="M423.27,330.42c-15.02,4.78-30.29,5.69-45.81,2.77c-0.3-4.22-1.08-18.1-1.68-32.71
							c-0.02-0.48-0.04-0.97-0.06-1.46c-0.01-0.39-0.03-0.78-0.05-1.17c-0.01-0.28-0.02-0.56-0.03-0.85
							c-0.01-0.13-0.01-0.26-0.01-0.39c-0.02-0.38-0.03-0.77-0.04-1.15c-0.01-0.32-0.03-0.64-0.04-0.96c0-0.04,0-0.09,0-0.13
							c0-0.04,0-0.08,0-0.12c-0.01-0.33-0.02-0.67-0.04-1c0-0.07-0.01-0.13-0.01-0.19c-0.01-0.4-0.03-0.8-0.04-1.2
							c-0.01-0.28-0.02-0.55-0.03-0.82c0-0.11-0.01-0.22-0.01-0.33c-0.01-0.31-0.02-0.62-0.03-0.92c0-0.09-0.01-0.18-0.01-0.28
							c-0.01-0.28-0.02-0.56-0.02-0.85c0-0.12-0.01-0.24-0.01-0.36c-0.01-0.4-0.03-0.8-0.03-1.2c-0.02-0.39-0.03-0.77-0.04-1.15
							c-0.01-0.26-0.02-0.51-0.03-0.76c-0.02-0.55-0.03-1.1-0.04-1.64c-0.32-12.52-0.28-22.79,0.61-24.2
							c2.09-3.26,12.17-8.5,15.22-10.93l0.03,0.5c0,0,2.15,2.51,4.38,2.18c2.02-0.29,3.44-2.75,3.68-3.19
							c1.65,1.02,5.41,2.6,9.07,4.31c3.66,1.7,7.21,3.53,8.44,5.02c1.05,1.29,2.23,11.3,3.31,23.6l0,0.04
							c0.02,0.23,0.04,0.46,0.06,0.69l0,0.03c0.01,0.18,0.03,0.35,0.05,0.54c0.01,0.11,0.02,0.22,0.03,0.34
							c0.02,0.25,0.04,0.51,0.06,0.76c0.03,0.38,0.07,0.76,0.1,1.15c0.03,0.39,0.06,0.79,0.1,1.19c0.01,0.12,0.02,0.24,0.03,0.36
							c0.02,0.28,0.04,0.56,0.07,0.84c0.01,0.09,0.01,0.18,0.02,0.28c0.02,0.3,0.05,0.61,0.07,0.92l0.03,0.33
							c0.02,0.27,0.04,0.54,0.06,0.82c0.03,0.4,0.06,0.8,0.09,1.2c0,0.06,0.01,0.13,0.02,0.19c0.02,0.33,0.05,0.67,0.07,1
							c0,0.04,0.01,0.08,0.01,0.12c0,0.04,0.01,0.09,0.01,0.13c0.03,0.32,0.05,0.64,0.07,0.95c0.03,0.38,0.06,0.76,0.08,1.15
							c0.01,0.13,0.02,0.26,0.03,0.38c0.02,0.28,0.04,0.56,0.06,0.84c0.03,0.39,0.06,0.78,0.09,1.17c0.03,0.48,0.07,0.97,0.1,1.45
							C422.3,312.28,423.07,326.16,423.27,330.42z"/>
					</g>
					<g>
						<path class="st3" d="M420.37,285.96l-45.01,2.72c0-0.12-0.01-0.24-0.01-0.36c-0.01-0.4-0.03-0.8-0.03-1.2
							c-0.02-0.39-0.03-0.77-0.04-1.15c-0.01-0.26-0.02-0.51-0.03-0.76l44.83-2.71c0.02,0.25,0.04,0.51,0.06,0.76
							c0.03,0.38,0.07,0.76,0.1,1.15c0.03,0.39,0.06,0.79,0.1,1.19C420.35,285.72,420.36,285.84,420.37,285.96z"/>
						<path class="st3" d="M420.82,291.79l-45.27,2.74c0-0.04,0-0.09,0-0.13c0-0.04,0-0.08,0-0.12c-0.01-0.33-0.02-0.67-0.04-1
							c0-0.07-0.01-0.13-0.01-0.19c-0.01-0.4-0.03-0.8-0.04-1.2c-0.01-0.28-0.02-0.55-0.03-0.82l45.12-2.73
							c0.02,0.27,0.04,0.54,0.06,0.82c0.03,0.4,0.06,0.8,0.09,1.2c0,0.06,0.01,0.13,0.02,0.19c0.02,0.33,0.05,0.67,0.07,1
							c0,0.04,0.01,0.08,0.01,0.12C420.82,291.7,420.82,291.74,420.82,291.79z"/>
						<path class="st3" d="M421.26,297.73l-45.47,2.75c-0.02-0.48-0.04-0.97-0.06-1.46c-0.01-0.39-0.03-0.78-0.05-1.17
							c-0.01-0.28-0.02-0.56-0.03-0.85l45.36-2.74c0.02,0.28,0.04,0.56,0.06,0.84c0.03,0.39,0.06,0.78,0.09,1.17
							C421.19,296.77,421.23,297.25,421.26,297.73z"/>
					</g>
					<g>
						<path class="st3" d="M414.95,274.76c1.42,1.7,3.58,5.6,4.55,7.41c0.13,0.25,0.24,0.46,0.33,0.61
							c0.11,0.21,0.17,0.33,0.18,0.34c0.03,0.06,0.08,0.11,0.13,0.14c-0.03-0.37-0.06-0.73-0.09-1.1c-0.01-0.18-0.03-0.36-0.05-0.54
							l0-0.03c-0.2-0.37-0.43-0.8-0.7-1.27c-1.1-1.98-2.66-4.65-3.81-6.02c-0.13-0.15-0.35-0.17-0.5-0.04
							C414.85,274.38,414.83,274.61,414.95,274.76z"/>
					</g>
					<g>
						<path class="st3" d="M384.85,262.76c0,0,0.01,0,0.01,0c6.06-0.56,10.6-3.37,13.33-5.63c2.96-2.45,4.48-4.73,4.54-4.83
							c0.11-0.16,0.06-0.38-0.1-0.49c-0.16-0.11-0.38-0.06-0.49,0.1c-0.06,0.09-6.09,9.1-17.34,10.14c-0.2,0.02-0.34,0.19-0.32,0.39
							C384.5,262.63,384.66,262.77,384.85,262.76z"/>
					</g>
					<g>
						<path class="st3" d="M411.06,322.77c0.18-0.01,0.33-0.16,0.33-0.35c0-0.2-0.16-0.36-0.35-0.36
							c-10.01-0.05-16.26-4.74-19.74-8.67c-3.78-4.27-5.22-8.59-5.23-8.63c-0.06-0.19-0.26-0.29-0.45-0.23
							c-0.19,0.06-0.29,0.26-0.23,0.45c0.06,0.18,1.48,4.48,5.35,8.86c3.58,4.04,10,8.88,20.28,8.93
							C411.04,322.77,411.05,322.77,411.06,322.77z"/>
					</g>
					<g>
						<path class="st3" d="M402.61,316.84c0.16-0.01,0.29-0.12,0.33-0.28c0.04-0.19-0.08-0.38-0.28-0.42
							c-8.8-1.82-10.91-8.95-10.93-9.02c-0.05-0.19-0.25-0.3-0.44-0.25c-0.19,0.05-0.3,0.25-0.25,0.44
							c0.02,0.08,0.56,1.94,2.24,4.05c1.55,1.95,4.41,4.47,9.23,5.47C402.55,316.84,402.58,316.84,402.61,316.84z"/>
					</g>
				</g>
				<g>
					<path class="st3" d="M379.58,275.73c-1.2,1.85-2.88,5.99-3.63,7.9c-0.1,0.26-0.19,0.48-0.25,0.65
						c-0.08,0.22-0.13,0.35-0.13,0.35c-0.05,0.14-0.18,0.22-0.31,0.23l-0.01,0c-0.01-0.18-0.01-0.36-0.02-0.54
						c-0.1,0.01-0.21,0.01-0.31,0.02c0.04-0.11,0.14-0.37,0.28-0.74c0.18-0.46,0.43-1.1,0.72-1.83c0.85-2.1,2.08-4.94,3.05-6.43
						c0.11-0.16,0.33-0.21,0.49-0.1C379.65,275.35,379.69,275.57,379.58,275.73z"/>
				</g>
				<g>
					<g>
						<path class="st11" d="M382.8,230.2c0.39,6.51,4.67,10.75,11.18,10.36c6.51-0.39,10.75-5.49,10.36-11.99
							c-0.39-6.51-4.54-11.2-11.05-10.81C385.48,218.22,382.41,223.69,382.8,230.2z"/>
					</g>
					<g>
						<path class="st12" d="M384.43,232.91c0,0-1.95-2.3-3.18-0.23c-1.22,2.07,1.03,7.85,4.24,6.21L384.43,232.91z"/>
						<g>
							<g>
								<g>
									<path class="st13" d="M384.66,237.12c-0.12,0.01-0.24-0.07-0.28-0.19c-0.62-1.79-2.55-2.41-2.57-2.42
										c-0.15-0.05-0.23-0.2-0.18-0.35c0.05-0.15,0.2-0.23,0.35-0.18c0.09,0.03,2.21,0.71,2.93,2.77c0.05,0.15-0.03,0.3-0.17,0.35
										C384.71,237.11,384.69,237.12,384.66,237.12z"/>
								</g>
							</g>
						</g>
						<g>
							<path class="st13" d="M382.71,236.32c-0.05,0-0.1-0.01-0.15-0.04c-0.13-0.08-0.18-0.25-0.11-0.38
								c0.01-0.02,0.31-0.55,0.99-0.9c0.14-0.07,0.3-0.02,0.38,0.12c0.07,0.14,0.02,0.3-0.12,0.38c-0.52,0.27-0.76,0.68-0.76,0.68
								C382.89,236.26,382.8,236.31,382.71,236.32z"/>
						</g>
					</g>
					<g>
						<path class="st12" d="M403.06,231.79c0,0,1.66-2.52,3.13-0.61c1.46,1.91-0.08,7.91-3.46,6.68L403.06,231.79z"/>
						<g>
							<g>
								<g>
									<path class="st13" d="M403.34,235.99c0.12-0.01,0.23-0.09,0.26-0.22c0.4-1.85,2.24-2.7,2.26-2.71
										c0.14-0.06,0.2-0.23,0.14-0.37c-0.06-0.14-0.23-0.2-0.37-0.14c-0.09,0.04-2.11,0.97-2.57,3.1
										c-0.03,0.15,0.06,0.3,0.21,0.33C403.29,235.99,403.31,235.99,403.34,235.99z"/>
								</g>
							</g>
						</g>
						<g>
							<g>
								<g>
									<path class="st13" d="M405.18,234.96c0.05,0,0.1-0.02,0.15-0.05c0.12-0.09,0.15-0.27,0.06-0.39
										c-0.02-0.02-0.38-0.51-1.09-0.78c-0.14-0.05-0.3,0.02-0.36,0.16c-0.05,0.14,0.02,0.3,0.16,0.36
										c0.55,0.21,0.84,0.58,0.84,0.59C405,234.93,405.09,234.97,405.18,234.96z"/>
								</g>
							</g>
						</g>
					</g>
					<path class="st9" d="M398.86,243.1l0.35,5.85c0,0-1.57,3.09-3.91,3.43c-2.35,0.35-4.61-2.3-4.61-2.3l-0.37-6.06L398.86,243.1z"
						/>
					<path class="st12" d="M398.86,243.1l0.16,2.6c-1.48,1.85-4.27,2.46-8.47,2.1l-0.23-3.77L398.86,243.1z"/>
					<path class="st9" d="M383.47,232.86c0.04,0.34,0.09,0.68,0.15,1.02c0.14,0.87,0.31,1.76,0.53,2.64
						c0.01,0.03,0.01,0.06,0.02,0.09c1.05,4.27,3.07,8.41,6.96,9.54c8.81,2.56,11.45-5.02,12.42-9.41c0.11-0.49,0.2-1.03,0.27-1.6
						c0-0.02,0.01-0.05,0.01-0.07c0.08-0.65,0.14-1.33,0.19-2.04c0.03-0.52,0.06-1.05,0.08-1.59c0.05-1.3,0.05-2.59,0.04-3.74
						c-0.03-2.63-1.75-4.95-4.26-5.74c-3.62-1.15-9.06-1.9-13.98,1.29c-1.82,1.18-2.88,3.23-2.79,5.39
						C383.15,229.83,383.26,231.29,383.47,232.86z"/>
					<g>
						<path class="st11" d="M390.35,233.02c0.04,0.62-0.25,1.15-0.65,1.18c-0.4,0.02-0.75-0.46-0.79-1.09
							c-0.04-0.62,0.25-1.15,0.65-1.17S390.31,232.4,390.35,233.02z"/>
					</g>
					<g>
						<path class="st11" d="M399.17,232.49c0.04,0.62-0.25,1.15-0.65,1.17c-0.4,0.02-0.75-0.46-0.79-1.09
							c-0.04-0.62,0.25-1.15,0.65-1.17C398.78,231.38,399.13,231.86,399.17,232.49z"/>
					</g>
					<g>
						<path class="st11" d="M400.18,228.56c0,0-2.32-0.76-4.03,0.1l0.23,0.96c0,0,2.55-0.37,3.88,0.07
							C400.36,229.32,400.35,228.94,400.18,228.56z"/>
					</g>
					<g>
						<path class="st11" d="M386.72,229.38c0,0,2.22-1.03,4.01-0.38l-0.12,0.98c0,0-2.58-0.06-3.84,0.54
							C386.64,230.15,386.6,229.77,386.72,229.38z"/>
					</g>
					<g>
						<path class="st12" d="M394.35,237.58c-0.46,0.09-0.95-0.01-1.03-0.03c-0.15-0.03-0.25-0.18-0.22-0.33
							c0.03-0.15,0.18-0.25,0.33-0.22c0.27,0.05,0.89,0.1,1.12-0.1c0.04-0.04,0.1-0.11,0.09-0.28c-0.08-0.98-0.93-4.13-0.94-4.17
							c-0.04-0.15,0.05-0.3,0.2-0.34c0.15-0.04,0.3,0.05,0.34,0.2c0.04,0.13,0.87,3.24,0.96,4.27c0.03,0.39-0.13,0.62-0.28,0.74
							C394.76,237.47,394.56,237.54,394.35,237.58z"/>
					</g>
					<path class="st10" d="M390.64,239.48c0.3,1.13,1.18,3.19,3.72,3.03c2.55-0.15,3.15-2.12,3.32-3.46L390.64,239.48z"/>
					<g>
						<path class="st11" d="M404.08,231.78l-1.26,0.08c0.06-1.27-0.49-2.78-0.93-3.77c-1-2.26,0.77-3.39-0.78-4.46
							c-1.55-1.07-5.21-0.35-7.78-0.28c-2.59,0.07-6.73,0.36-7.73,0.65c-1,0.29-0.34,1.93,0.11,3.21c0.45,1.27-1.07,2.81-1.26,4.17
							c-0.05,0.39,0,0.96,0.1,1.58l-1.05,0.06c-0.22-1.63-0.33-3.15-0.39-4.38c-0.09-2.16,0.97-4.21,2.79-5.39
							c4.92-3.19,10.36-2.44,13.98-1.3c2.51,0.79,4.23,3.11,4.26,5.74C404.14,228.94,404.14,230.37,404.08,231.78z"/>
					</g>
					<g>
						<g>
							<path class="st10" d="M395.17,233.17c-0.11-1.83,1.29-3.4,3.11-3.51c1.83-0.11,3.4,1.29,3.51,3.11
								c0.11,1.83-1.29,3.4-3.11,3.51C396.86,236.4,395.28,235,395.17,233.17z M395.69,233.14c0.09,1.54,1.42,2.72,2.97,2.63
								c1.54-0.09,2.72-1.42,2.63-2.97c-0.09-1.54-1.42-2.72-2.97-2.63C396.78,230.27,395.6,231.6,395.69,233.14z"/>
						</g>
						<g>
							<path class="st10" d="M386.12,233.72c-0.11-1.83,1.29-3.4,3.11-3.51c1.83-0.11,3.4,1.29,3.51,3.11
								c0.11,1.83-1.29,3.4-3.11,3.51C387.8,236.94,386.23,235.55,386.12,233.72z M386.63,233.69c0.09,1.54,1.42,2.72,2.97,2.63
								c1.54-0.09,2.72-1.42,2.63-2.97c-0.09-1.54-1.42-2.72-2.97-2.63C387.72,230.81,386.54,232.14,386.63,233.69z"/>
						</g>
						<g>
							<path class="st10" d="M401.18,231.74c0.07,0,0.13-0.03,0.18-0.09l0,0c0.01-0.02,1.43-1.57,3.43-1.23
								c0.14,0.02,0.27-0.07,0.3-0.21c0.02-0.14-0.07-0.27-0.21-0.3c-2.29-0.39-3.84,1.32-3.91,1.39c-0.1,0.11-0.09,0.27,0.02,0.37
								C401.04,231.72,401.11,231.74,401.18,231.74z"/>
						</g>
						<g>
							<path class="st10" d="M386.55,232.62c0.08-0.01,0.16-0.05,0.21-0.13c0.07-0.12,0.03-0.28-0.1-0.35
								c-0.1-0.06-2.54-1.43-4.51-0.98c-0.14,0.03-0.23,0.17-0.19,0.31c0.03,0.14,0.17,0.23,0.31,0.19c1.78-0.4,4.12,0.91,4.14,0.93
								C386.45,232.61,386.5,232.62,386.55,232.62z"/>
						</g>
						<g>
							<path class="st10" d="M392.52,232.58c0.01-0.01,0.57-0.88,1.38-0.92c0.8-0.05,1.4,0.75,1.41,0.75l0.42-0.31
								c-0.03-0.04-0.77-1.03-1.86-0.96c-1.07,0.06-1.75,1.12-1.78,1.16L392.52,232.58z"/>
						</g>
					</g>
				</g>
				<g>
					<path class="st9" d="M378.41,327.03l-2.93,4c0,0-1.7-1.06-4-2.91c-0.01-0.01-0.01-0.01-0.01-0.01
						c-3.51-2.8-8.42-7.42-10.93-12.84c-3.14-6.78-2.22-12.27-2.22-12.27c0.41-4.02,3.11-12.19,5.25-18.26c0.78-2.2,1.5-4.12,2-5.47
						l6.55,1.5l2.8,1.73l-1.08,2.84l-7.23,19.18c0.63,5.63,3.49,11.16,6.23,15.32C375.69,324.16,378.41,327.03,378.41,327.03z"/>
					<path class="st12" d="M378.41,327.03l-2.93,4c0,0-1.7-1.06-4-2.91c-0.01-0.01-0.01-0.01-0.01-0.01
						c-0.51-3.02-0.2-7.29,1.38-8.26C375.69,324.16,378.41,327.03,378.41,327.03z"/>
					<path class="st9" d="M376.85,322.42c0.59,0.04,3.73,0.19,3.39-0.88c-0.37-1.19-3.46-2.58-3.46-2.58s-0.02-0.06,0.01-0.14
						l-0.03-0.25l-0.14-2.55c-0.6,0-1.14,0.12-1.44,0.21c-1.35,0.42-1.17,3.51-1.17,3.51s-1.71,0.61-1.64,1.86
						c0.06,1.25,1.44,1.44,1.44,1.44s-1.88,0.94-1.44,2c0.44,1.06,1.86,1.37,1.86,1.37s-1.61,1.06-1.05,1.81
						c0.56,0.75,1.87,1.12,1.87,1.12s-1.12,1.52,0.02,2.35c1.14,0.83,2.82,0.65,3.9,0.27c1.08-0.37,0.89-1.75-1.23-2.75
						c0,0,1.87,0.19,2.81-1.37c0.78-1.3-1.21-1.86-2.91-2.09c1.34,0.09,3.64,0.05,4.04-1.22
						C382.2,322.86,377.57,322.47,376.85,322.42z"/>
					<path class="st12" d="M374.93,282.5l-1.08,2.84c-2.17,0.14-6.07,0.2-10.27-0.61c0.78-2.2,1.5-4.12,2-5.47l6.55,1.5
						L374.93,282.5z"/>
					<path class="st8" d="M375.83,259.36c0,0-7.98,8-13.8,21.96c4.56,1.48,8.88,2.52,12.9,3.02c0.53-0.93,2.62-6.9,4.2-11.2
						L375.83,259.36z"/>
				</g>
			</g>
			<g>
				<g>
					<g>
						<path class="st9" d="M438.47,304.74c-0.04,0.02-0.08,0.05-0.13,0.08c-2.37,1.54-5.55,0.61-6.7-1.98l-6.56-12.19l-2.03-4.19
							l-1.29-2.67l-1.17-2.41l-1.07-2.2c-0.14-0.7-0.28-1.44-0.41-2.21l3.26-8.47l1.47-1.06c0,0,1.79,3.84,4.24,8.56
							c0.37,0.72,0.76,1.46,1.16,2.21c0.2,0.38,0.41,0.77,0.62,1.15c0.49,0.9,0.99,1.81,1.5,2.7c0.54,0.94,1.07,1.87,1.58,2.78
							c0.36,0.64,0.72,1.26,1.06,1.87c0.21,0.36,0.41,0.73,0.61,1.07c1.62,2.85,2.89,5.12,3.37,6.02l0.84-0.06
							C438.84,293.75,442.55,302,438.47,304.74z"/>
						<path class="st12" d="M429.87,279.36l-6.81,7.09l-1.29-2.67l-1.17-2.41l7.49-5.38c0.37,0.72,0.76,1.46,1.16,2.21
							C429.45,278.59,429.66,278.98,429.87,279.36z"/>
						<path class="st9" d="M434.55,297.42c0,0-0.87-9.91,0.91-12.31c1.78-2.4,3.57-3.49,5.55-3.71c1.98-0.22,3.86-0.26,3.86,0.57
							c0,0,4.41-1.36,6.6-0.49c2.19,0.87-5.64,3.09-8,3.51c-2.36,0.42-3.41,1.93-3.3,3.36c0.12,1.43,0.16,10.99,0.16,10.99
							L434.55,297.42z"/>
						<g>
							<g>
								<g>
									<g>
										<g>
											<path class="st12" d="M433.89,297.31c0.02,0,0.03,0,0.05-0.01c0.17-0.02,0.3-0.17,0.3-0.34
												c0.03-4.18,0.19-7.36,0.34-9.23c-0.2-0.35-0.35-0.7-0.55-1.06c-0.16,1.66-0.46,5.22-0.49,10.29
												C433.54,297.15,433.7,297.31,433.89,297.31z"/>
										</g>
									</g>
								</g>
							</g>
						</g>
					</g>
					<g>
						<path class="st6" d="M430.21,284.82l29.94-4.3c1.13-0.16,1.91-1.21,1.75-2.33l0-0.02c-0.16-1.13-1.21-1.91-2.33-1.75
							l-29.94,4.3c-1.13,0.16-1.91,1.21-1.75,2.33l0,0.02C428.04,284.2,429.09,284.98,430.21,284.82z"/>
						<g>
							<path class="st5" d="M462.19,280.22l2.96-24.87c0.17-1.4-1.04-2.57-2.43-2.37l-14.07,2.02c-0.95,0.14-1.69,0.89-1.82,1.84
								l-3.44,26.08L462.19,280.22z"/>
						</g>
						<path class="st6" d="M446.82,256.85l-3.41,25.86l-1.61,0.23l3.41-25.86c0.13-0.95,0.87-1.7,1.82-1.84l1.61-0.23
							C447.69,255.14,446.95,255.89,446.82,256.85z"/>
						<g>
							<path class="st14" d="M452.28,269.16c-0.14,1.63,1.03,2.77,2.61,2.54c1.58-0.23,2.97-1.73,3.11-3.37
								c0.14-1.63-1.03-2.77-2.61-2.54C453.82,266.02,452.42,267.53,452.28,269.16z"/>
						</g>
					</g>
				</g>
				<path class="st8" d="M430.99,276.91l-1.74,1.3l-7.48,5.58l-0.91,0.68c-0.44-1.2-0.88-3.07-1.32-5.28
					c-0.14-0.7-0.28-1.44-0.41-2.21c-1.51-8.51-2.78-20.04-2.78-20.04S423.27,263.44,430.99,276.91z"/>
			</g>
		</g>
	</g>
	<g>
		<ellipse class="st0" cx="207.85" cy="437.95" rx="38.86" ry="4"/>
		<g>
			<g>
				<polygon class="st9" points="188.85,424.05 188.85,431.23 193.98,431.12 194.32,423.52 				"/>
				<g>
					<g>
						<g>
							<path class="st3" d="M190.24,430.58c0,0-1.17-1.65-2.13-1.6c-0.96,0.05-8.47,5.75-11.01,6.18c-2.54,0.43-2.09,2.3-1.65,3.26
								c0.44,0.96,20.19,0.09,20.19,0.09s0.67-5.86,0.07-7.67C195.1,429.04,192.21,431.05,190.24,430.58z"/>
							<g>
								<g>
									<path class="st10" d="M186.07,434.58c0.09,0.03,0.19,0.02,0.28-0.03c0.17-0.09,0.24-0.31,0.14-0.48
										c-0.03-0.06-0.77-1.42-1.8-1.96c-1.37-0.73-2.46,0.03-2.51,0.06c-0.16,0.11-0.2,0.33-0.08,0.49
										c0.11,0.16,0.33,0.2,0.49,0.08c0.03-0.02,0.79-0.53,1.77-0.01c0.84,0.45,1.5,1.66,1.51,1.68
										C185.91,434.5,185.99,434.56,186.07,434.58z"/>
								</g>
								<g>
									<path class="st10" d="M187.15,433.61c0.09,0.03,0.19,0.02,0.28-0.03c0.17-0.09,0.24-0.31,0.14-0.48
										c-0.03-0.06-0.77-1.42-1.8-1.96c-1.37-0.73-2.46,0.03-2.51,0.06c-0.16,0.11-0.2,0.33-0.08,0.49
										c0.11,0.16,0.33,0.2,0.49,0.08c0.03-0.02,0.79-0.53,1.77-0.01c0.84,0.45,1.5,1.66,1.51,1.68
										C186.99,433.52,187.06,433.58,187.15,433.61z"/>
								</g>
								<g>
									<path class="st10" d="M184.62,435.36c0.09,0.03,0.19,0.02,0.28-0.03c0.17-0.09,0.24-0.31,0.14-0.48
										c-0.03-0.06-0.77-1.42-1.8-1.96c-1.37-0.73-2.46,0.03-2.51,0.06c-0.16,0.11-0.2,0.33-0.08,0.49
										c0.11,0.16,0.33,0.2,0.49,0.08c0.03-0.02,0.79-0.53,1.77-0.01c0.84,0.45,1.5,1.66,1.51,1.68
										C184.46,435.28,184.54,435.34,184.62,435.36z"/>
								</g>
							</g>
						</g>
					</g>
				</g>
			</g>
			<g>
				<path class="st5" d="M187.8,425.36l5.23-0.44l0.62-0.05l1.27-0.11c0,0,1.72-38.82,2.33-49.15c0.52-8.98,3.81-29.14,5.97-41.68
					c0.61-3.56,1.13-6.51,1.48-8.41c0.26-1.5,0.42-2.35,0.42-2.35l-17.62-2.32c0,0-0.03,0.49-0.08,1.36c-0.1,1.8-0.3,5.24-0.53,9.56
					c-0.64,11.77-1.6,30.09-1.88,39.41C184.27,395.2,187.8,425.36,187.8,425.36z"/>
			</g>
			<path class="st6" d="M186.88,331.77l16.33,2.15c0.61-3.56,1.13-6.51,1.48-8.41l-17.28-3.3
				C187.31,324.01,187.11,327.45,186.88,331.77z"/>
			<g>
				<path class="st6" d="M193.03,424.92l0.62-0.05c-0.16-12.01-0.39-42,1.02-54.7c1.77-16.01,6.36-39.3,6.41-39.54l-0.61-0.23
					c-0.05,0.24-4.65,23.57-6.42,39.62C192.64,382.8,192.86,412.93,193.03,424.92z"/>
			</g>
		</g>
		<g>
			<g>
				<polygon class="st9" points="230.16,421.75 232.25,428.61 237.13,427.02 235.24,419.65 				"/>
				<g>
					<g>
						<g>
							<path class="st3" d="M233.64,427.6c0,0-1.67-1.13-2.55-0.75c-0.88,0.38-5.92,8.36-8.15,9.65c-2.23,1.29-1.15,2.89-0.4,3.63
								c0.75,0.75,18.94-6.98,18.94-6.98s-1.42-5.72-2.62-7.21C237.65,424.46,235.65,427.35,233.64,427.6z"/>
							<g>
								<g>
									<path class="st10" d="M231.13,432.81c0.09,0,0.18-0.05,0.25-0.12c0.13-0.15,0.11-0.37-0.03-0.5
										c-0.05-0.04-1.22-1.06-2.38-1.21c-1.54-0.2-2.3,0.89-2.33,0.94c-0.11,0.16-0.07,0.38,0.09,0.49
										c0.16,0.11,0.38,0.07,0.49-0.09c0.02-0.03,0.56-0.77,1.65-0.63c0.94,0.12,1.99,1.03,2,1.04
										C230.95,432.79,231.04,432.82,231.13,432.81z"/>
								</g>
								<g>
									<path class="st10" d="M231.8,431.52c0.09,0,0.18-0.05,0.25-0.12c0.13-0.15,0.11-0.37-0.03-0.5
										c-0.05-0.04-1.22-1.06-2.38-1.21c-1.54-0.2-2.3,0.89-2.33,0.94c-0.11,0.16-0.07,0.38,0.09,0.49
										c0.16,0.11,0.38,0.07,0.49-0.09c0.02-0.03,0.56-0.78,1.65-0.63c0.94,0.13,1.99,1.03,2,1.04
										C231.62,431.5,231.71,431.53,231.8,431.52z"/>
								</g>
								<g>
									<path class="st10" d="M230.05,434.05c0.09,0,0.18-0.04,0.25-0.12c0.13-0.15,0.11-0.37-0.03-0.5
										c-0.05-0.04-1.22-1.06-2.38-1.21c-1.54-0.2-2.3,0.89-2.33,0.94c-0.11,0.16-0.07,0.38,0.09,0.49
										c0.16,0.11,0.38,0.07,0.49-0.09c0.02-0.03,0.56-0.78,1.65-0.63c0.94,0.13,1.99,1.03,2,1.04
										C229.87,434.02,229.96,434.05,230.05,434.05z"/>
								</g>
							</g>
						</g>
					</g>
				</g>
			</g>
			<g>
				<path class="st5" d="M229.64,423.25l4.91-1.84l0.59-0.22l1.19-0.45c0,0-8.82-37.84-11.03-47.96c-1.92-8.79-4.19-29.09-5.5-41.75
					c-0.37-3.59-0.67-6.57-0.85-8.5c-0.15-1.51-0.23-2.37-0.23-2.37l-17.59,2.52c0,0,0.1,0.48,0.29,1.33
					c0.39,1.76,1.13,5.12,2.07,9.35c2.56,11.51,6.58,29.4,8.82,38.46C218.1,395.16,229.64,423.25,229.64,423.25z"/>
			</g>
			<path class="st6" d="M203.5,333.38l16.3-2.34c-0.37-3.59-0.67-6.57-0.85-8.5l-17.53,1.49
				C201.81,325.79,202.55,329.16,203.5,333.38z"/>
			<g>
				<path class="st6" d="M234.55,421.42l0.59-0.22c-3.39-11.52-11.71-40.34-13.78-52.95c-2.62-15.89-4.48-39.56-4.5-39.8l-0.65-0.06
					c0.02,0.24,1.89,23.95,4.51,39.88C222.81,380.96,231.16,409.92,234.55,421.42z"/>
			</g>
		</g>
		<path class="st3" d="M198.03,279.57c-4.83,7.86-18.53,15.16-18.53,15.16c-5.21-0.85-8.55-2.24-11.88-3.88
			c0.85-2.35,1.16-4.7,1.55-7.77c4.85,1.11,9.02,1.62,9.02,1.62c9.89-5.16,20.67-29.23,20.67-29.23
			C202.45,262.06,198.03,279.57,198.03,279.57z"/>
		<g>
			<g>
				<path class="st11" d="M199.6,248.42c-0.01,0.98-0.05,2.09-0.1,3.27c1.49,0.39,3.02,0.64,4.52,0.9
					c4.15,0.71,8.39,1.01,12.58,0.45c3.07-0.41,6.13-1.15,8.69-2.97c1.15-0.82,2.11-1.82,2.9-2.95c-0.66-1.22-1.33-2.81-1.44-6.64
					c-0.1-3.45-0.28-8.22-0.28-8.22c-0.51-10.34-10.93-12.24-10.93-12.24c-12.54-2.54-16.85,7.88-17.19,13.72
					c-0.02,0.4-0.03,0.8-0.03,1.21l0,0.03C198.16,237.41,199.66,243.59,199.6,248.42z"/>
			</g>
			<g>
				<g>
					<path class="st8" d="M226.43,259.4c0,0-0.54,6.75-1.7,13.23c-0.41,2.31-0.9,4.58-1.47,6.51c-0.34,1.16-0.7,2.44-1.04,3.81
						c-1.57,6.18-3.04,14.22-3.22,21.07c-0.03,1.29-0.02,2.53,0.05,3.71c0.51,8.87,3.74,16.63,0.83,19.73c0,0-24.37,5.61-34.19-2.69
						c-0.81-0.69-1.15-1.77-0.83-2.79c1.39-4.36,5.46-17.19,7.22-23.87c1.51-5.72,2.47-9.96,2.48-13.42c0-0.29,0-0.58-0.02-0.86
						c-0.05-1.12-0.21-2.17-0.5-3.16c-1.22-4.18-1.47-5.7,0.15-8.69c0.35-0.64,0.76-1.78,1.2-3.15c1.59-5.02,3.46-13.35,3.46-13.35
						l1.88-0.44l2.83-0.66l1.71-0.4l8.61-0.74c0,0,1.49,0.67,3.5,1.61c1.13,0.53,2.42,1.14,3.7,1.76
						C223.15,257.62,225.18,258.65,226.43,259.4z"/>
					<path class="st3" d="M224.73,272.63c-0.41,2.31-0.9,4.58-1.47,6.51c-0.34,1.16-0.7,2.44-1.04,3.81
						c-1.57,6.18-3.04,14.22-3.22,21.07l-8.81-4.39l7.57-8.16l1.94-20.95L224.73,272.63z"/>
					<g>
						<g>
							<path class="st3" d="M194.55,283.83c0.01,0.28,0.02,0.57,0.02,0.86c4,3.87,10.98,9.26,19.32,9.81
								c0.16,0.01,0.31-0.11,0.32-0.28c0.01-0.16-0.11-0.31-0.28-0.32C205.45,293.34,198.39,287.66,194.55,283.83z"/>
						</g>
						<g>
							<path class="st3" d="M204.03,270.75c4.23,0.28,8.44-3.96,8.63-4.14c0.12-0.12,0.11-0.31,0-0.42c-0.12-0.12-0.31-0.11-0.42,0
								c-0.04,0.04-4.45,4.49-8.52,3.93c-0.16-0.02-0.31,0.09-0.34,0.26c-0.02,0.16,0.09,0.31,0.26,0.34
								C203.76,270.72,203.9,270.74,204.03,270.75z"/>
						</g>
						<g>
							<path class="st3" d="M211.07,314.25c0.15,0.01,0.29-0.09,0.31-0.24c0.03-0.16-0.08-0.32-0.24-0.35
								c-10.86-1.99-14.12-21.23-14.15-21.42c-0.03-0.16-0.18-0.27-0.34-0.25c-0.16,0.03-0.27,0.18-0.25,0.34
								c0.13,0.81,3.37,19.85,14.64,21.92C211.05,314.25,211.06,314.25,211.07,314.25z"/>
						</g>
						<g>
							<path class="st3" d="M207.1,308.23c0.1,0.01,0.2-0.04,0.26-0.12c0.1-0.13,0.06-0.32-0.07-0.42c-5.58-3.98-6.09-9.32-6.1-9.38
								c-0.01-0.16-0.16-0.29-0.32-0.27c-0.16,0.01-0.29,0.16-0.27,0.32c0.02,0.23,0.53,5.67,6.34,9.81
								C206.99,308.21,207.04,308.22,207.1,308.23z"/>
						</g>
					</g>
				</g>
			</g>
			<g>
				<g>
					<g>
						<path class="st12" d="M202.57,235.94c0,0-1.65-2.41-3.12-0.61c-1.47,1.8,0.06,7.52,3.44,6.38L202.57,235.94z"/>
						<path class="st7" d="M201.44,241.23c-0.02,0.33-0.31,0.58-0.64,0.56c-0.33-0.02-0.58-0.31-0.56-0.64
							c0.02-0.33,0.31-0.58,0.64-0.56C201.21,240.61,201.46,240.89,201.44,241.23z"/>
						<g>
							<g>
								<g>
									<path class="st13" d="M202.28,239.94c-0.12-0.01-0.23-0.09-0.25-0.21c-0.39-1.76-2.23-2.59-2.25-2.59
										c-0.14-0.06-0.2-0.22-0.14-0.35c0.06-0.13,0.23-0.19,0.37-0.13c0.09,0.04,2.11,0.94,2.56,2.97
										c0.03,0.14-0.06,0.28-0.21,0.31C202.33,239.94,202.31,239.94,202.28,239.94z"/>
								</g>
							</g>
						</g>
						<g>
							<path class="st13" d="M200.44,238.94c-0.05,0-0.1-0.02-0.15-0.05c-0.12-0.09-0.15-0.25-0.06-0.37
								c0.02-0.02,0.38-0.48,1.1-0.73c0.14-0.05,0.3,0.02,0.36,0.16c0.05,0.14-0.02,0.29-0.16,0.34c-0.55,0.19-0.84,0.55-0.84,0.55
								C200.63,238.91,200.53,238.95,200.44,238.94z"/>
						</g>
					</g>
					<path class="st9" d="M215.73,248.57l-0.41,6.17c0,0-3.4,2.94-5.9,2.99c-2.5,0.05-3.16-2.94-3.16-2.94l0.43-6.39L215.73,248.57z
						"/>
					<path class="st12" d="M215.68,249.24l-0.18,2.74c-1.79,1.74-4.8,2.2-9.14,1.26l0.28-4.16L215.68,249.24z"/>
					<path class="st9" d="M201.31,238.48c0.04,0.67,0.08,1.35,0.16,2.03c0.49,4.51,2.99,9.52,6.5,10.57
						c7.58,2.26,11.18-3.57,12.7-7.95c0.17-0.49-0.05-1.07,0.1-1.65c0.35-1.37,1.01-2.91,1.25-4.46c0.16-1.07,0.29-2.13,0.4-3.09
						c0.31-2.7-1.1-5.3-3.49-6.44c-3.44-1.64-8.74-3.12-14.03-0.47c-1.95,0.98-3.27,2.94-3.46,5.17
						C201.3,233.89,201.2,236.12,201.31,238.48z"/>
					<g>
						<path class="st12" d="M210.47,242.56c0.14,0.01,0.28-0.09,0.31-0.23c0.04-0.16-0.06-0.32-0.22-0.36l-1.01-0.24l1.67-3.67
							c0.07-0.15,0-0.33-0.15-0.4c-0.15-0.07-0.33,0-0.4,0.15l-1.97,4.33l1.72,0.41C210.44,242.55,210.46,242.56,210.47,242.56z"/>
					</g>
					<g>
						<path class="st11" d="M204.78,231.16c-3.1,1.17-2.38,4.81-3.52,6.53c-0.07,0.11-0.14,0.13-0.21,0.06
							c-0.13-2.4-0.02-4.68,0.13-6.41c0.2-2.27,1.58-4.27,3.63-5.26c5.57-2.68,11.15-1.17,14.79,0.51c2.52,1.16,4.01,3.82,3.69,6.57
							c-0.11,0.98-0.25,2.06-0.42,3.15c-0.52,0.26-1.75,0.32-1.85,1.12c-0.28,2.11-0.48,3.56-0.91,3.4
							c-0.73-0.26-1.03-2.87-0.06-4.47c0,0-0.61-1.16-3.34-2.43c-3.5-1.63-6.83-3.91-6.83-3.91s-1.31-0.91-1.77-1.84
							C208.1,228.18,207.14,230.27,204.78,231.16z"/>
					</g>
					<g>
						<path class="st11" d="M207.3,237.34c-0.04,0.66-0.42,1.17-0.84,1.14c-0.42-0.03-0.72-0.58-0.68-1.24
							c0.04-0.66,0.42-1.17,0.84-1.14C207.04,236.12,207.35,236.68,207.3,237.34z"/>
					</g>
					<g>
						<path class="st11" d="M215.5,237.89c-0.04,0.66-0.42,1.17-0.84,1.14c-0.42-0.03-0.72-0.58-0.68-1.24
							c0.04-0.66,0.42-1.17,0.84-1.14C215.24,236.67,215.54,237.23,215.5,237.89z"/>
					</g>
					<g>
						<path class="st11" d="M204.71,234.03c0.62-0.08,1.86-0.19,3.17-0.06c0.34,0.04,0.6,0.31,0.54,0.59l0,0.01
							c-0.05,0.22-0.3,0.35-0.57,0.31c-0.89-0.13-3.23-0.27-4.34-0.02c-0.02-0.16,0.1-0.32,0.26-0.46
							C204.02,234.19,204.35,234.07,204.71,234.03z"/>
					</g>
					<g>
						<path class="st11" d="M216.89,234.98c-0.6-0.17-1.81-0.46-3.13-0.52c-0.35-0.02-0.64,0.22-0.62,0.5l0,0.01
							c0.02,0.22,0.24,0.39,0.52,0.39c0.9,0,3.24,0.21,4.3,0.62c0.04-0.16-0.05-0.33-0.19-0.49
							C217.56,235.25,217.24,235.08,216.89,234.98z"/>
					</g>
					<path class="st7" d="M207.04,244.11c0.15,1.06,0.76,3.04,3.24,3.21c2.49,0.17,3.3-1.55,3.62-2.75L207.04,244.11z"/>
					<g>
						<path class="st12" d="M210.12,249.12c-0.72-0.05-1.32-0.48-1.35-0.49c-0.13-0.09-0.16-0.28-0.07-0.41
							c0.09-0.13,0.28-0.16,0.41-0.07l0,0c0.01,0,0.5,0.35,1.05,0.39c0.59,0.04,1.14-0.24,1.15-0.24c0.14-0.07,0.32-0.02,0.4,0.13
							c0.07,0.14,0.02,0.32-0.13,0.4C211.55,248.83,210.88,249.17,210.12,249.12z"/>
					</g>
				</g>
				<g>
					<path class="st9" d="M221.11,237.16c0,0,2.27-2.41,3.39-0.49c1.12,1.92-1,7.24-3.95,5.71L221.11,237.16z"/>
					<path class="st7" d="M222.45,242.63c-0.02,0.33-0.31,0.58-0.64,0.56c-0.33-0.02-0.58-0.31-0.56-0.64
						c0.02-0.33,0.31-0.58,0.64-0.56C222.22,242.01,222.48,242.3,222.45,242.63z"/>
					<g>
						<g>
							<g>
								<path class="st12" d="M221.33,240.75c0.11,0.01,0.22-0.06,0.26-0.17c0.58-1.65,2.37-2.21,2.38-2.21
									c0.14-0.04,0.21-0.19,0.17-0.32c-0.04-0.14-0.18-0.21-0.32-0.17c-0.08,0.03-2.05,0.64-2.72,2.53
									c-0.05,0.13,0.02,0.28,0.16,0.33C221.28,240.74,221.3,240.74,221.33,240.75z"/>
							</g>
						</g>
					</g>
					<g>
						<g>
							<g>
								<path class="st12" d="M223.14,240.02c0.05,0,0.1-0.01,0.14-0.03c0.12-0.07,0.17-0.23,0.1-0.35
									c-0.01-0.02-0.29-0.51-0.91-0.84c-0.12-0.07-0.28-0.02-0.35,0.11c-0.07,0.13-0.02,0.28,0.11,0.35
									c0.48,0.26,0.7,0.63,0.7,0.64C222.97,239.96,223.05,240.01,223.14,240.02z"/>
							</g>
						</g>
					</g>
				</g>
			</g>
		</g>
		<g>
			<path class="st4" d="M209.06,320.04h-39.71c-3.83,0-6.94-3.11-6.94-6.94V273.4c0-3.83,3.11-6.94,6.94-6.94h39.71
				c3.83,0,6.94,3.11,6.94,6.94v39.71C216,316.94,212.9,320.04,209.06,320.04z"/>
			<path class="st3" d="M206.74,320.04h-39.71c-3.83,0-6.94-3.11-6.94-6.94V273.4c0-3.83,3.11-6.94,6.94-6.94h39.71
				c3.83,0,6.94,3.11,6.94,6.94v39.71C213.68,316.94,210.57,320.04,206.74,320.04z"/>
			<g>
				<g>
					<g>
						<path class="st7" d="M202.13,278.78c-3.48-3.52-9.18-3.56-12.7-0.07l-3.51,3.47c-1.12,1.1-0.48,3.01,1.08,3.22
							c0.02,0,0.03,0,0.05,0.01c0.58,0.08,1.16-0.12,1.58-0.53l3.49-3.45c2.02-2,5.3-1.99,7.31,0.04c2,2.03,1.99,5.3-0.04,7.31
							l-6.9,6.82c-2.03,2-5.3,1.98-7.31-0.05c-0.08-0.08-0.16-0.17-0.24-0.26c-0.61-0.71-1.63-0.91-2.43-0.43l-0.02,0.01l-0.04,0.02
							c-0.99,0.6-1.21,1.94-0.46,2.82c0.15,0.18,0.3,0.35,0.47,0.51c3.48,3.52,9.18,3.56,12.7,0.07l6.9-6.82
							C205.58,288.01,205.61,282.31,202.13,278.78z"/>
					</g>
				</g>
				<g>
					<g>
						<path class="st7" d="M183.67,303.64l-3.02,2.98c-2.06,2.03-5.47,2.08-7.46-0.01c-1.94-2.03-1.9-5.26,0.1-7.24l6.9-6.82
							c2.02-2,5.3-1.98,7.31,0.04c0.35,0.35,0.63,0.74,0.86,1.15c0.48,0.87,1.57,1.21,2.46,0.77c0.01-0.01,0.02-0.01,0.04-0.02
							c0.98-0.48,1.35-1.67,0.82-2.63c-0.39-0.7-0.88-1.36-1.47-1.96c-3.48-3.52-9.18-3.55-12.7-0.07l-6.9,6.82
							c-3.52,3.48-3.56,9.18-0.07,12.7c3.48,3.52,9.18,3.56,12.7,0.07l3.12-3.08c1.16-1.14,0.43-3.12-1.2-3.23l-0.05,0
							C184.57,303.07,184.05,303.26,183.67,303.64z"/>
					</g>
				</g>
			</g>
		</g>
		<path class="st9" d="M157.66,283.79c0,0,3.28,0.29,4.33,1.42c1.05,1.13-3.44,1.44-3.44,1.44s5.42-0.33,5.75,0.95
			c0.33,1.28-4.93,1.75-4.93,1.75s3.71,0.34,4.06,1.29c0.35,0.96-3.48,1.46-3.48,1.46s2.91,0.56,3.26,1.26
			c0.34,0.7-2.83,1.5-4.54,1.32c-1.7-0.18-0.99-2.37-0.99-2.37s-0.83-1.86-0.26-2.62c0,0-1-1.63-0.65-2.67
			C156.77,287.04,155.56,284.32,157.66,283.79z"/>
		<g>
			<g>
				<path class="st9" d="M194.27,313.99l-1.23,0.52c-1.1,0.46-2.21,0.16-3.11-0.61c-0.4-0.34-1.03-1.01-1.35-1.2
					c-0.9-0.53-3.01-1.16-3.61-0.95c-0.61,0.21-0.04,1.26,0.58,1.56c0.62,0.31,1.53,0.64,2.17,1.17c0.64,0.53-2.02,3.26-3.19,4.13
					c-1.18,0.87-3.78,1.13-3.54,2.31c0.23,1.18,2.03,0.62,2.03,0.62s-0.1,1.19,1.68,1.4c0,0,0.15,1.07,1.29,1.19
					c0,0,0.4,1.26,1.61,1.13c1.21-0.13,4.98-0.57,9.89-7.33L194.27,313.99z"/>
			</g>
		</g>
		<path class="st8" d="M226.43,259.4c0,0,3.13,26.41,0.6,36.24c-2.53,9.82-29.39,23.3-29.39,23.3l-3.97-4.7
			c0,0,20.45-15.1,25.05-21.84l0.65-20.39C219.38,272,220.17,265.59,226.43,259.4z"/>
	</g>
	<g>
		<path class="st0" d="M335.88,438.76c0,2.21-15.77,4-35.21,4c-19.45,0-35.21-1.79-35.21-4c0-2.21,15.77-4,35.21-4
			C320.11,434.76,335.88,436.55,335.88,438.76z"/>
		<g>
			<g>
				<g>
					<g>
						<path class="st5" d="M329.3,334.63v97.9c0,3.44-2.79,6.24-6.23,6.24h-44.8c-3.44,0-6.23-2.79-6.23-6.24v-97.9
							c0-3.44,2.79-6.23,6.23-6.23h44.8C326.51,328.39,329.3,331.18,329.3,334.63z"/>
					</g>
					<path class="st6" d="M329.3,383.48v49.04c0,3.44-2.79,6.24-6.23,6.24h-44.8c-3.44,0-6.23-2.79-6.23-6.24v-49.04H329.3z"/>
					<path class="st15" d="M324.23,345.33v76.27c0,1.45-1.19,2.65-2.65,2.65h-41.83c-0.56,0-1.07-0.18-1.5-0.46
						c-0.7-0.48-1.16-1.28-1.16-2.18v-76.27c0-1.69,1.37-3.07,3.07-3.07h40.99C322.86,342.26,324.23,343.63,324.23,345.33z"/>
				</g>
				<path class="st0" d="M324.23,345.33v4.08H277.1v-4.08c0-1.69,1.37-3.07,3.07-3.07h40.99
					C322.86,342.26,324.23,343.63,324.23,345.33z"/>
				<path class="st15" d="M313.51,347.04h-25.69c-0.66,0-1.21-0.54-1.21-1.21l0,0c0-0.66,0.54-1.21,1.21-1.21h25.69
					c0.66,0,1.21,0.54,1.21,1.21l0,0C314.72,346.49,314.17,347.04,313.51,347.04z"/>
				<g>
					<circle class="st14" cx="300.67" cy="430.6" r="3.15"/>
				</g>
				<g>
					<path class="st14" d="M314.36,337.63h-25.95c-0.85,0-1.54-0.7-1.54-1.54l0,0c0-0.85,0.7-1.54,1.54-1.54h25.95
						c0.85,0,1.54,0.7,1.54,1.54l0,0C315.9,336.93,315.21,337.63,314.36,337.63z"/>
				</g>
			</g>
			<g>
				<g>
					<path class="st0" d="M321.16,357.72v57.8c0,2.14-1.74,3.88-3.88,3.88h-33.22c-2.14,0-3.88-1.74-3.88-3.88v-57.8
						c0-2.14,1.74-3.88,3.88-3.88h33.22C319.42,353.83,321.16,355.57,321.16,357.72z"/>
					<path class="st2" d="M321.16,357.72v2.58h-40.98v-2.58c0-2.14,1.74-3.88,3.88-3.88h33.22
						C319.42,353.83,321.16,355.57,321.16,357.72z"/>
				</g>
				<g>
					<rect x="284.71" y="376.71" class="st3" width="31.91" height="22.84"/>
					<polygon class="st6" points="316.62,393.51 315.07,390.89 309.93,382.24 299.65,399.55 316.62,399.55 					"/>
					<g>
						<polygon class="st5" points="297.52,399.55 284.71,399.55 291.12,389.22 297.52,378.9 303.93,389.22 310.34,399.55 						"/>
					</g>
					<polygon class="st7" points="293.37,385.59 297.52,388.7 301.68,385.59 297.52,378.9 					"/>
					<polygon class="st7" points="306.43,388.13 309.93,390.89 313.43,388.13 309.93,382.24 					"/>
				</g>
				<path class="st2" d="M315.38,367.45h-29.43c-0.69,0-1.24-0.56-1.24-1.24v-0.18c0-0.69,0.56-1.24,1.24-1.24h29.43
					c0.69,0,1.24,0.56,1.24,1.24v0.18C316.62,366.89,316.07,367.45,315.38,367.45z"/>
				<path class="st2" d="M315.38,372.09h-29.43c-0.69,0-1.24-0.56-1.24-1.24v-0.18c0-0.69,0.56-1.24,1.24-1.24h29.43
					c0.69,0,1.24,0.56,1.24,1.24v0.18C316.62,371.54,316.07,372.09,315.38,372.09z"/>
				<path class="st2" d="M315.38,406.48h-29.43c-0.69,0-1.24-0.56-1.24-1.24v-0.18c0-0.69,0.56-1.24,1.24-1.24h29.43
					c0.69,0,1.24,0.56,1.24,1.24v0.18C316.62,405.92,316.07,406.48,315.38,406.48z"/>
				<path class="st2" d="M315.38,411.12h-29.43c-0.69,0-1.24-0.56-1.24-1.24v-0.18c0-0.69,0.56-1.24,1.24-1.24h29.43
					c0.69,0,1.24,0.56,1.24,1.24v0.18C316.62,410.56,316.07,411.12,315.38,411.12z"/>
			</g>
		</g>
	</g>
	<g>
		<g>
			<g>
				<path class="st3" d="M72.33,105.33c-0.18-0.01-0.35-0.03-0.53-0.03v6.26h5.14C75.36,108.09,73.06,105.95,72.33,105.33z"/>
				<path class="st3" d="M71.8,124.21h5.86c0.48-1.59,0.75-3.32,0.78-5.14H71.8V124.21z"/>
				<path class="st3" d="M75.07,129.31c0.9-1.16,1.63-2.47,2.19-3.92H71.8v6.88C72.25,132.02,73.65,131.1,75.07,129.31z"/>
				<path class="st3" d="M74.39,105.66c0.66,0.7,1.28,1.47,1.85,2.29c0.79,1.12,1.46,2.34,1.98,3.61h4.38
					C80.73,108.6,77.76,106.48,74.39,105.66z"/>
				<path class="st3" d="M83.29,112.74h-4.62c0.57,1.67,0.89,3.4,0.95,5.15h5.08C84.57,116.09,84.09,114.36,83.29,112.74z"/>
				<path class="st3" d="M77.42,112.74H71.8v5.15h6.64C78.37,116.13,78.03,114.4,77.42,112.74z"/>
				<path class="st3" d="M78.52,125.4c-0.61,1.74-1.48,3.31-2.56,4.68c-0.54,0.69-1.13,1.33-1.77,1.89c3.73-0.84,6.9-3.21,8.79-6.57
					H78.52z"/>
				<path class="st3" d="M84.72,119.07h-5.09c-0.04,1.8-0.29,3.53-0.74,5.14h4.69C84.3,122.59,84.68,120.86,84.72,119.07z"/>
				<path class="st3" d="M57.74,117.89h5.21c0.06-1.75,0.38-3.48,0.95-5.15h-4.75C58.33,114.36,57.85,116.09,57.74,117.89z"/>
				<path class="st3" d="M68.41,132c-0.65-0.57-1.26-1.21-1.81-1.92c-1.08-1.37-1.94-2.94-2.56-4.68h-4.61
					C61.34,128.77,64.65,131.2,68.41,132z"/>
				<path class="st3" d="M63.68,124.21c-0.45-1.61-0.7-3.34-0.74-5.14h-5.23c0.04,1.78,0.41,3.51,1.13,5.14H63.68z"/>
				<path class="st3" d="M67.27,108.66c-0.63,0.91-1.19,1.89-1.64,2.91h5v-6.26c-0.12,0-0.25,0.01-0.38,0.02
					C69.74,105.75,68.51,106.87,67.27,108.66z"/>
				<path class="st3" d="M70.62,119.07h-6.5c0.04,1.82,0.3,3.55,0.78,5.14h5.72V119.07z"/>
				<path class="st3" d="M70.62,132.2v-6.81h-5.31C66.93,129.63,69.73,131.64,70.62,132.2z"/>
				<path class="st3" d="M68.22,105.62c-3.45,0.79-6.48,2.93-8.4,5.95h4.52c0.53-1.26,1.19-2.49,1.98-3.61
					C66.9,107.12,67.53,106.34,68.22,105.62z"/>
				<path class="st3" d="M70.62,112.74h-5.48c-0.61,1.67-0.95,3.39-1.02,5.15h6.5V112.74z"/>
			</g>
			<g>
				<g>
					<path class="st2" d="M50,139.31h-1.47c-0.38,0-0.69-0.31-0.69-0.69v-1.47c0-0.38,0.31-0.69,0.69-0.69
						c0.38,0,0.69,0.31,0.69,0.69v0.78H50c0.38,0,0.69,0.31,0.69,0.69C50.69,139,50.39,139.31,50,139.31z"/>
				</g>
				<g>
					<path class="st2" d="M89.68,139.31h-2.92c-0.38,0-0.69-0.31-0.69-0.69c0-0.38,0.31-0.69,0.69-0.69h2.92
						c0.38,0,0.69,0.31,0.69,0.69C90.37,139,90.06,139.31,89.68,139.31z M84.01,139.31h-2.92c-0.38,0-0.69-0.31-0.69-0.69
						c0-0.38,0.31-0.69,0.69-0.69h2.92c0.38,0,0.69,0.31,0.69,0.69C84.7,139,84.39,139.31,84.01,139.31z M78.34,139.31h-2.92
						c-0.38,0-0.69-0.31-0.69-0.69c0-0.38,0.31-0.69,0.69-0.69h2.92c0.38,0,0.69,0.31,0.69,0.69
						C79.03,139,78.72,139.31,78.34,139.31z M72.67,139.31h-2.92c-0.38,0-0.69-0.31-0.69-0.69c0-0.38,0.31-0.69,0.69-0.69h2.92
						c0.38,0,0.69,0.31,0.69,0.69C73.36,139,73.06,139.31,72.67,139.31z M67.01,139.31h-2.92c-0.38,0-0.69-0.31-0.69-0.69
						c0-0.38,0.31-0.69,0.69-0.69h2.92c0.38,0,0.69,0.31,0.69,0.69C67.7,139,67.39,139.31,67.01,139.31z M61.34,139.31h-2.92
						c-0.38,0-0.69-0.31-0.69-0.69c0-0.38,0.31-0.69,0.69-0.69h2.92c0.38,0,0.69,0.31,0.69,0.69
						C62.03,139,61.72,139.31,61.34,139.31z M55.67,139.31h-2.92c-0.38,0-0.69-0.31-0.69-0.69c0-0.38,0.31-0.69,0.69-0.69h2.92
						c0.38,0,0.69,0.31,0.69,0.69C56.36,139,56.05,139.31,55.67,139.31z"/>
				</g>
				<g>
					<path class="st2" d="M93.89,139.31h-1.47c-0.38,0-0.69-0.31-0.69-0.69c0-0.38,0.31-0.69,0.69-0.69h0.78v-0.78
						c0-0.38,0.31-0.69,0.69-0.69c0.38,0,0.69,0.31,0.69,0.69v1.47C94.58,139,94.27,139.31,93.89,139.31z"/>
				</g>
				<g>
					<path class="st2" d="M93.89,135.2c-0.38,0-0.69-0.31-0.69-0.69v-2.81c0-0.38,0.31-0.69,0.69-0.69c0.38,0,0.69,0.31,0.69,0.69
						v2.81C94.58,134.89,94.27,135.2,93.89,135.2z M93.89,129.75c-0.38,0-0.69-0.31-0.69-0.69v-2.81c0-0.38,0.31-0.69,0.69-0.69
						c0.38,0,0.69,0.31,0.69,0.69v2.81C94.58,129.44,94.27,129.75,93.89,129.75z M93.89,124.3c-0.38,0-0.69-0.31-0.69-0.69v-2.81
						c0-0.38,0.31-0.69,0.69-0.69c0.38,0,0.69,0.31,0.69,0.69v2.81C94.58,123.99,94.27,124.3,93.89,124.3z M93.89,118.85
						c-0.38,0-0.69-0.31-0.69-0.69v-2.81c0-0.38,0.31-0.69,0.69-0.69c0.38,0,0.69,0.31,0.69,0.69v2.81
						C94.58,118.54,94.27,118.85,93.89,118.85z M93.89,113.4c-0.38,0-0.69-0.31-0.69-0.69v-2.81c0-0.38,0.31-0.69,0.69-0.69
						c0.38,0,0.69,0.31,0.69,0.69v2.81C94.58,113.09,94.27,113.4,93.89,113.4z M93.89,107.95c-0.38,0-0.69-0.31-0.69-0.69v-2.81
						c0-0.38,0.31-0.69,0.69-0.69c0.38,0,0.69,0.31,0.69,0.69v2.81C94.58,107.64,94.27,107.95,93.89,107.95z"/>
				</g>
				<g>
					<path class="st2" d="M93.89,102.5c-0.38,0-0.69-0.31-0.69-0.69v-0.78h-0.78c-0.38,0-0.69-0.31-0.69-0.69
						c0-0.38,0.31-0.69,0.69-0.69h1.47c0.38,0,0.69,0.31,0.69,0.69v1.47C94.58,102.19,94.27,102.5,93.89,102.5z"/>
				</g>
				<g>
					<path class="st2" d="M89.68,101.03h-2.92c-0.38,0-0.69-0.31-0.69-0.69c0-0.38,0.31-0.69,0.69-0.69h2.92
						c0.38,0,0.69,0.31,0.69,0.69C90.37,100.73,90.06,101.03,89.68,101.03z M84.01,101.03h-2.92c-0.38,0-0.69-0.31-0.69-0.69
						c0-0.38,0.31-0.69,0.69-0.69h2.92c0.38,0,0.69,0.31,0.69,0.69C84.7,100.73,84.39,101.03,84.01,101.03z M78.34,101.03h-2.92
						c-0.38,0-0.69-0.31-0.69-0.69c0-0.38,0.31-0.69,0.69-0.69h2.92c0.38,0,0.69,0.31,0.69,0.69
						C79.03,100.73,78.72,101.03,78.34,101.03z M72.67,101.03h-2.92c-0.38,0-0.69-0.31-0.69-0.69c0-0.38,0.31-0.69,0.69-0.69h2.92
						c0.38,0,0.69,0.31,0.69,0.69C73.36,100.73,73.06,101.03,72.67,101.03z M67.01,101.03h-2.92c-0.38,0-0.69-0.31-0.69-0.69
						c0-0.38,0.31-0.69,0.69-0.69h2.92c0.38,0,0.69,0.31,0.69,0.69C67.7,100.73,67.39,101.03,67.01,101.03z M61.34,101.03h-2.92
						c-0.38,0-0.69-0.31-0.69-0.69c0-0.38,0.31-0.69,0.69-0.69h2.92c0.38,0,0.69,0.31,0.69,0.69
						C62.03,100.73,61.72,101.03,61.34,101.03z M55.67,101.03h-2.92c-0.38,0-0.69-0.31-0.69-0.69c0-0.38,0.31-0.69,0.69-0.69h2.92
						c0.38,0,0.69,0.31,0.69,0.69C56.36,100.73,56.05,101.03,55.67,101.03z"/>
				</g>
				<g>
					<path class="st2" d="M48.54,102.5c-0.38,0-0.69-0.31-0.69-0.69v-1.47c0-0.38,0.31-0.69,0.69-0.69H50
						c0.38,0,0.69,0.31,0.69,0.69c0,0.38-0.31,0.69-0.69,0.69h-0.78v0.78C49.23,102.19,48.92,102.5,48.54,102.5z"/>
				</g>
				<g>
					<path class="st2" d="M48.54,135.2c-0.38,0-0.69-0.31-0.69-0.69v-2.81c0-0.38,0.31-0.69,0.69-0.69c0.38,0,0.69,0.31,0.69,0.69
						v2.81C49.23,134.89,48.92,135.2,48.54,135.2z M48.54,129.75c-0.38,0-0.69-0.31-0.69-0.69v-2.81c0-0.38,0.31-0.69,0.69-0.69
						c0.38,0,0.69,0.31,0.69,0.69v2.81C49.23,129.44,48.92,129.75,48.54,129.75z M48.54,124.3c-0.38,0-0.69-0.31-0.69-0.69v-2.81
						c0-0.38,0.31-0.69,0.69-0.69c0.38,0,0.69,0.31,0.69,0.69v2.81C49.23,123.99,48.92,124.3,48.54,124.3z M48.54,118.85
						c-0.38,0-0.69-0.31-0.69-0.69v-2.81c0-0.38,0.31-0.69,0.69-0.69c0.38,0,0.69,0.31,0.69,0.69v2.81
						C49.23,118.54,48.92,118.85,48.54,118.85z M48.54,113.4c-0.38,0-0.69-0.31-0.69-0.69v-2.81c0-0.38,0.31-0.69,0.69-0.69
						c0.38,0,0.69,0.31,0.69,0.69v2.81C49.23,113.09,48.92,113.4,48.54,113.4z M48.54,107.95c-0.38,0-0.69-0.31-0.69-0.69v-2.81
						c0-0.38,0.31-0.69,0.69-0.69c0.38,0,0.69,0.31,0.69,0.69v2.81C49.23,107.64,48.92,107.95,48.54,107.95z"/>
				</g>
			</g>
			<g>
				<path class="st2" d="M113.45,148.77c-0.38,0-0.69-0.31-0.69-0.69v-2.93c0-0.38,0.31-0.69,0.69-0.69c0.38,0,0.69,0.31,0.69,0.69
					v2.93C114.14,148.46,113.83,148.77,113.45,148.77z M113.45,143.07c-0.38,0-0.69-0.31-0.69-0.69v-2.93
					c0-0.38,0.31-0.69,0.69-0.69c0.38,0,0.69,0.31,0.69,0.69v2.93C114.14,142.76,113.83,143.07,113.45,143.07z M113.45,137.38
					c-0.38,0-0.69-0.31-0.69-0.69v-2.93c0-0.38,0.31-0.69,0.69-0.69c0.38,0,0.69,0.31,0.69,0.69v2.93
					C114.14,137.07,113.83,137.38,113.45,137.38z M113.45,131.69c-0.38,0-0.69-0.31-0.69-0.69v-2.93c0-0.38,0.31-0.69,0.69-0.69
					c0.38,0,0.69,0.31,0.69,0.69V131C114.14,131.38,113.83,131.69,113.45,131.69z M113.45,125.99c-0.38,0-0.69-0.31-0.69-0.69v-2.93
					c0-0.38,0.31-0.69,0.69-0.69c0.38,0,0.69,0.31,0.69,0.69v2.93C114.14,125.68,113.83,125.99,113.45,125.99z M111.08,122.67h-2.93
					c-0.38,0-0.69-0.31-0.69-0.69c0-0.38,0.31-0.69,0.69-0.69h2.93c0.38,0,0.69,0.31,0.69,0.69
					C111.77,122.36,111.46,122.67,111.08,122.67z M105.39,122.67h-2.93c-0.38,0-0.69-0.31-0.69-0.69c0-0.38,0.31-0.69,0.69-0.69
					h2.93c0.38,0,0.69,0.31,0.69,0.69C106.08,122.36,105.77,122.67,105.39,122.67z M99.69,122.67h-2.93c-0.38,0-0.69-0.31-0.69-0.69
					c0-0.38,0.31-0.69,0.69-0.69h2.93c0.38,0,0.69,0.31,0.69,0.69C100.38,122.36,100.07,122.67,99.69,122.67z M94,122.67h-0.06
					c-0.38,0-0.69-0.31-0.69-0.69c0-0.38,0.31-0.69,0.69-0.69H94c0.38,0,0.69,0.31,0.69,0.69C94.69,122.36,94.38,122.67,94,122.67z"
					/>
			</g>
		</g>
		<g>
			<g>
				<g>
					<path class="st2" d="M476.94,234h1.47c0.38,0,0.69-0.31,0.69-0.69v-1.47c0-0.38-0.31-0.69-0.69-0.69s-0.69,0.31-0.69,0.69v0.78
						h-0.78c-0.38,0-0.69,0.31-0.69,0.69C476.25,233.69,476.56,234,476.94,234z"/>
				</g>
				<g>
					<path class="st2" d="M436.58,233.31c0-0.38,0.31-0.69,0.69-0.69h2.92c0.38,0,0.69,0.31,0.69,0.69c0,0.38-0.31,0.69-0.69,0.69
						h-2.92C436.88,234,436.58,233.69,436.58,233.31z M442.24,233.31c0-0.38,0.31-0.69,0.69-0.69h2.92c0.38,0,0.69,0.31,0.69,0.69
						c0,0.38-0.31,0.69-0.69,0.69h-2.92C442.55,234,442.24,233.69,442.24,233.31z M447.91,233.31c0-0.38,0.31-0.69,0.69-0.69h2.92
						c0.38,0,0.69,0.31,0.69,0.69c0,0.38-0.31,0.69-0.69,0.69h-2.92C448.22,234,447.91,233.69,447.91,233.31z M453.58,233.31
						c0-0.38,0.31-0.69,0.69-0.69h2.92c0.38,0,0.69,0.31,0.69,0.69c0,0.38-0.31,0.69-0.69,0.69h-2.92
						C453.89,234,453.58,233.69,453.58,233.31z M459.25,233.31c0-0.38,0.31-0.69,0.69-0.69h2.92c0.38,0,0.69,0.31,0.69,0.69
						c0,0.38-0.31,0.69-0.69,0.69h-2.92C459.56,234,459.25,233.69,459.25,233.31z M464.91,233.31c0-0.38,0.31-0.69,0.69-0.69h2.92
						c0.38,0,0.69,0.31,0.69,0.69c0,0.38-0.31,0.69-0.69,0.69h-2.92C465.22,234,464.91,233.69,464.91,233.31z M470.58,233.31
						c0-0.38,0.31-0.69,0.69-0.69h2.92c0.38,0,0.69,0.31,0.69,0.69c0,0.38-0.31,0.69-0.69,0.69h-2.92
						C470.89,234,470.58,233.69,470.58,233.31z"/>
				</g>
				<g>
					<path class="st2" d="M433.05,234h1.47c0.38,0,0.69-0.31,0.69-0.69c0-0.38-0.31-0.69-0.69-0.69h-0.78v-0.78
						c0-0.38-0.31-0.69-0.69-0.69s-0.69,0.31-0.69,0.69v1.47C432.36,233.69,432.67,234,433.05,234z"/>
				</g>
				<g>
					<path class="st2" d="M432.36,229.2v-2.81c0-0.38,0.31-0.69,0.69-0.69s0.69,0.31,0.69,0.69v2.81c0,0.38-0.31,0.69-0.69,0.69
						S432.36,229.58,432.36,229.2z M432.36,223.75v-2.81c0-0.38,0.31-0.69,0.69-0.69s0.69,0.31,0.69,0.69v2.81
						c0,0.38-0.31,0.69-0.69,0.69S432.36,224.13,432.36,223.75z M432.36,218.3v-2.81c0-0.38,0.31-0.69,0.69-0.69
						s0.69,0.31,0.69,0.69v2.81c0,0.38-0.31,0.69-0.69,0.69S432.36,218.68,432.36,218.3z M432.36,212.85v-2.81
						c0-0.38,0.31-0.69,0.69-0.69s0.69,0.31,0.69,0.69v2.81c0,0.38-0.31,0.69-0.69,0.69S432.36,213.23,432.36,212.85z M432.36,207.4
						v-2.81c0-0.38,0.31-0.69,0.69-0.69s0.69,0.31,0.69,0.69v2.81c0,0.38-0.31,0.69-0.69,0.69S432.36,207.78,432.36,207.4z
						 M432.36,201.95v-2.81c0-0.38,0.31-0.69,0.69-0.69s0.69,0.31,0.69,0.69v2.81c0,0.38-0.31,0.69-0.69,0.69
						S432.36,202.33,432.36,201.95z"/>
				</g>
				<g>
					<path class="st2" d="M433.05,197.19c0.38,0,0.69-0.31,0.69-0.69v-0.78h0.78c0.38,0,0.69-0.31,0.69-0.69
						c0-0.38-0.31-0.69-0.69-0.69h-1.47c-0.38,0-0.69,0.31-0.69,0.69v1.47C432.36,196.88,432.67,197.19,433.05,197.19z"/>
				</g>
				<g>
					<path class="st2" d="M436.58,195.03c0-0.38,0.31-0.69,0.69-0.69h2.92c0.38,0,0.69,0.31,0.69,0.69c0,0.38-0.31,0.69-0.69,0.69
						h-2.92C436.88,195.72,436.58,195.41,436.58,195.03z M442.24,195.03c0-0.38,0.31-0.69,0.69-0.69h2.92
						c0.38,0,0.69,0.31,0.69,0.69c0,0.38-0.31,0.69-0.69,0.69h-2.92C442.55,195.72,442.24,195.41,442.24,195.03z M447.91,195.03
						c0-0.38,0.31-0.69,0.69-0.69h2.92c0.38,0,0.69,0.31,0.69,0.69c0,0.38-0.31,0.69-0.69,0.69h-2.92
						C448.22,195.72,447.91,195.41,447.91,195.03z M453.58,195.03c0-0.38,0.31-0.69,0.69-0.69h2.92c0.38,0,0.69,0.31,0.69,0.69
						c0,0.38-0.31,0.69-0.69,0.69h-2.92C453.89,195.72,453.58,195.41,453.58,195.03z M459.25,195.03c0-0.38,0.31-0.69,0.69-0.69
						h2.92c0.38,0,0.69,0.31,0.69,0.69c0,0.38-0.31,0.69-0.69,0.69h-2.92C459.56,195.72,459.25,195.41,459.25,195.03z
						 M464.91,195.03c0-0.38,0.31-0.69,0.69-0.69h2.92c0.38,0,0.69,0.31,0.69,0.69c0,0.38-0.31,0.69-0.69,0.69h-2.92
						C465.22,195.72,464.91,195.41,464.91,195.03z M470.58,195.03c0-0.38,0.31-0.69,0.69-0.69h2.92c0.38,0,0.69,0.31,0.69,0.69
						c0,0.38-0.31,0.69-0.69,0.69h-2.92C470.89,195.72,470.58,195.41,470.58,195.03z"/>
				</g>
				<g>
					<path class="st2" d="M478.41,197.19c0.38,0,0.69-0.31,0.69-0.69v-1.47c0-0.38-0.31-0.69-0.69-0.69h-1.47
						c-0.38,0-0.69,0.31-0.69,0.69c0,0.38,0.31,0.69,0.69,0.69h0.78v0.78C477.72,196.88,478.02,197.19,478.41,197.19z"/>
				</g>
				<g>
					<path class="st2" d="M477.72,229.2v-2.81c0-0.38,0.31-0.69,0.69-0.69s0.69,0.31,0.69,0.69v2.81c0,0.38-0.31,0.69-0.69,0.69
						S477.72,229.58,477.72,229.2z M477.72,223.75v-2.81c0-0.38,0.31-0.69,0.69-0.69s0.69,0.31,0.69,0.69v2.81
						c0,0.38-0.31,0.69-0.69,0.69S477.72,224.13,477.72,223.75z M477.72,218.3v-2.81c0-0.38,0.31-0.69,0.69-0.69
						s0.69,0.31,0.69,0.69v2.81c0,0.38-0.31,0.69-0.69,0.69S477.72,218.68,477.72,218.3z M477.72,212.85v-2.81
						c0-0.38,0.31-0.69,0.69-0.69s0.69,0.31,0.69,0.69v2.81c0,0.38-0.31,0.69-0.69,0.69S477.72,213.23,477.72,212.85z M477.72,207.4
						v-2.81c0-0.38,0.31-0.69,0.69-0.69s0.69,0.31,0.69,0.69v2.81c0,0.38-0.31,0.69-0.69,0.69S477.72,207.78,477.72,207.4z
						 M477.72,201.95v-2.81c0-0.38,0.31-0.69,0.69-0.69s0.69,0.31,0.69,0.69v2.81c0,0.38-0.31,0.69-0.69,0.69
						S477.72,202.33,477.72,201.95z"/>
				</g>
			</g>
			<g>
				<path class="st2" d="M430.18,215.98h-2.93c-0.38,0-0.69,0.31-0.69,0.69c0,0.38,0.31,0.69,0.69,0.69h2.93
					c0.38,0,0.69-0.31,0.69-0.69C430.87,216.28,430.56,215.98,430.18,215.98z"/>
				<path class="st2" d="M423.85,215.98h-0.7v1.38h0.7c0.38,0,0.69-0.31,0.69-0.69S424.23,215.98,423.85,215.98z"/>
				<path class="st2" d="M433.01,215.98h-0.06c-0.38,0-0.69,0.31-0.69,0.69c0,0.38,0.31,0.69,0.69,0.69h0.06
					c0.38,0,0.69-0.31,0.69-0.69C433.7,216.28,433.39,215.98,433.01,215.98z"/>
			</g>
			<g>
				<g>
					<path class="st3" d="M456.36,222.92c-4.92,0-8.93-4-8.93-8.93c0-1.29,0.28-2.52,0.78-3.63l0.37,3.72
						c0.04,0.45,0.42,0.78,0.86,0.78c0.05,0,0.1,0,0.15-0.01c0.45-0.08,0.75-0.51,0.71-0.96l-0.57-5.73
						c-0.05-0.47-0.48-0.82-0.95-0.77l-5.74,0.57c-0.41,0.04-0.76,0.36-0.8,0.77c-0.05,0.56,0.41,1,0.95,0.95l2.93-0.29
						c-0.77,1.71-1.14,3.63-0.95,5.67c0.49,5.27,4.69,9.54,9.95,10.11c1.3,0.14,2.55,0.06,3.74-0.22c0.86-0.2,1.18-1.25,0.58-1.9
						c-0.01-0.01-0.01-0.01-0.02-0.02c-0.28-0.3-0.7-0.42-1.1-0.33C457.69,222.84,457.03,222.92,456.36,222.92z"/>
					<path class="st3" d="M471.1,216.78c-0.19-0.54-0.8-0.74-1.26-0.47l-3.05,1.8c0.51-1.28,0.8-2.66,0.8-4.12
						c0-6.19-5.04-11.23-11.23-11.23c-0.62,0-1.22,0.05-1.81,0.15c-0.9,0.15-1.25,1.26-0.62,1.92c0.01,0.01,0.01,0.01,0.02,0.02
						c0.26,0.27,0.64,0.39,1.02,0.33c0.45-0.07,0.92-0.11,1.39-0.11c4.92,0,8.93,4,8.93,8.93c0,1.14-0.22,2.24-0.62,3.24l-1.57-2.66
						c-0.25-0.42-0.81-0.55-1.22-0.28c-0.39,0.26-0.48,0.8-0.24,1.2l2.92,4.94c0.16,0.27,0.45,0.42,0.74,0.42
						c0.15,0,0.3-0.04,0.44-0.12l4.96-2.93C471.05,217.6,471.23,217.16,471.1,216.78z"/>
				</g>
			</g>
		</g>
	</g>
</g>
<g id="DESIGNED_BY_FREEPIK">
</g>
</svg>
